<?xml version="1.0" encoding="UTF-8" standalone="no"?><!DOCTYPE svg PUBLIC "-//W3C//DTD SVG 1.1//EN" "http://www.w3.org/Graphics/SVG/1.1/DTD/svg11.dtd"><svg width="100%" height="100%" viewBox="0 0 102 156" version="1.1" xmlns="http://www.w3.org/2000/svg" xmlns:xlink="http://www.w3.org/1999/xlink" xml:space="preserve" xmlns:serif="http://www.serif.com/" style="fill-rule:evenodd;clip-rule:evenodd;stroke-linejoin:round;stroke-miterlimit:2;"><g><path d="M2.894,50.937c0,-26.526 21.509,-48.035 48.035,-48.035c26.541,-0 48.05,21.509 48.05,48.035c-0,8.261 -2.043,16.056 -5.708,22.845l-12.362,19.842l-4.07,27.667l-51.805,0l-4.746,-27.667l-11.626,-19.857c-3.68,-6.789 -5.768,-14.569 -5.768,-22.83" style="fill:#f1f2f2;fill-rule:nonzero;"/><path d="M27.472,118.389l46.878,0l3.695,-25.189c0.06,-0.39 0.195,-0.781 0.406,-1.111l12.346,-19.827c3.425,-6.338 5.287,-13.758 5.287,-21.328c0,-24.889 -20.262,-45.136 -45.15,-45.136c-24.889,-0 -45.136,20.247 -45.136,45.136c-0,7.495 1.877,14.9 5.407,21.448l11.581,19.767c0.18,0.3 0.3,0.631 0.36,0.976l4.326,25.264Zm49.371,5.798l-51.819,0c-1.412,0 -2.614,-1.021 -2.854,-2.403l-4.656,-27.157l-11.356,-19.391c-4.04,-7.48 -6.158,-15.846 -6.158,-24.302c-0,-28.088 22.846,-50.934 50.934,-50.934c28.087,0 50.948,22.846 50.948,50.934c0,8.531 -2.103,16.912 -6.068,24.242l-12.121,19.466l-3.981,27.067c-0.21,1.427 -1.427,2.478 -2.869,2.478" style="fill:#231f20;fill-rule:nonzero;"/><path d="M34.659,70.651l16.327,51.339l13.789,-51.339l-30.116,-0Z" style="fill:#f1f2f2;fill-rule:nonzero;"/><path d="M38.62,73.548l12.136,38.151l10.244,-38.151l-22.38,-0Zm12.362,51.339c-1.262,0 -2.374,-0.811 -2.764,-2.013l-16.327,-51.339c-0.27,-0.886 -0.12,-1.847 0.436,-2.598c0.54,-0.736 1.411,-1.187 2.328,-1.187l30.115,0c0.901,0 1.758,0.421 2.313,1.127c0.541,0.721 0.721,1.652 0.496,2.523l-13.789,51.354c-0.345,1.232 -1.457,2.118 -2.733,2.133l-0.075,0Z" style="fill:#231f20;fill-rule:nonzero;"/><rect x="24.774" y="121.296" width="52.06" height="31.302" style="fill:#8dc63f;"/><path d="M27.673,149.699l46.278,-0l-0,-25.519l-46.278,-0l0,25.519Zm49.176,5.798l-52.075,-0c-1.607,-0 -2.899,-1.307 -2.899,-2.899l0,-31.317c0,-1.592 1.292,-2.899 2.899,-2.899l52.075,-0c1.593,-0 2.899,1.307 2.899,2.899l0,31.317c0,1.592 -1.306,2.899 -2.899,2.899" style="fill:#231f20;fill-rule:nonzero;"/></g></svg>