<?xml version="1.0" encoding="UTF-8" standalone="no"?><!DOCTYPE svg PUBLIC "-//W3C//DTD SVG 1.1//EN" "http://www.w3.org/Graphics/SVG/1.1/DTD/svg11.dtd"><svg width="100%" height="100%" viewBox="0 0 180 137" version="1.1" xmlns="http://www.w3.org/2000/svg" xmlns:xlink="http://www.w3.org/1999/xlink" xml:space="preserve" xmlns:serif="http://www.serif.com/" style="fill-rule:evenodd;clip-rule:evenodd;stroke-linejoin:round;stroke-miterlimit:2;"><g><path d="M123.247,46.294l53.487,-0l-0,67.35l-22.26,0l0.03,6.91l0.03,3.71l0.045,9.012l-5.603,-3.47l-2.298,-1.412l-5.152,-3.184l-1.096,-0.676l-6.083,-3.77l-0.466,-0.285l-5.768,-3.56l-1.892,-1.172l-3.41,-2.103l-66.419,0l-0,-43.123l66.855,-24.227Z" style="fill:#8dc63f;fill-rule:nonzero;"/><path d="M154.578,136.166c-0.526,-0 -1.052,-0.135 -1.533,-0.436l-31.061,-19.196l-65.594,0c-1.607,0 -2.899,-1.291 -2.899,-2.899l0,-43.108c0,-1.607 1.292,-2.898 2.899,-2.898c1.593,-0 2.899,1.291 2.899,2.898l0,40.225l63.521,-0c0.525,-0 1.066,0.135 1.517,0.42l27.322,16.883l-0.076,-14.405c0,-0.766 0.301,-1.502 0.842,-2.057c0.555,-0.541 1.291,-0.841 2.057,-0.841l19.361,-0l0,-61.568l-50.588,-0c-1.592,-0 -2.899,-1.292 -2.899,-2.884c0,-1.607 1.307,-2.899 2.899,-2.899l53.487,-0c1.592,-0 2.884,1.292 2.884,2.899l0,67.335c0,1.608 -1.292,2.899 -2.884,2.899l-19.346,0l0.09,16.718c0,1.051 -0.555,2.028 -1.472,2.553c-0.45,0.241 -0.931,0.361 -1.426,0.361" style="fill:#231f20;fill-rule:nonzero;"/><path d="M2.902,2.891l-0,67.351l22.26,0l-0.105,19.631l31.767,-19.631l66.42,0l-0,-67.351l-120.342,0Z" style="fill:#f1f2f2;fill-rule:nonzero;"/><path d="M5.798,67.351l19.361,-0c0.766,-0 1.517,0.315 2.058,0.856c0.54,0.541 0.841,1.292 0.841,2.058l-0.075,14.404l27.306,-16.883c0.466,-0.285 0.992,-0.435 1.532,-0.435l63.521,-0l-0,-61.568l-114.544,-0l-0,61.568Zm19.256,25.429c-0.481,-0 -0.977,-0.12 -1.412,-0.376c-0.931,-0.51 -1.487,-1.487 -1.487,-2.538l0.09,-16.718l-19.346,0c-1.592,0 -2.899,-1.306 -2.899,-2.898l-0,-67.366c-0,-1.592 1.307,-2.884 2.899,-2.884l120.342,0c1.607,0 2.899,1.292 2.899,2.884l-0,67.366c-0,1.592 -1.292,2.898 -2.899,2.898l-65.593,0l-31.062,19.196c-0.466,0.301 -1.007,0.436 -1.532,0.436" style="fill:#231f20;fill-rule:nonzero;"/></g></svg>