<?xml version="1.0" encoding="UTF-8" standalone="no"?><!DOCTYPE svg PUBLIC "-//W3C//DTD SVG 1.1//EN" "http://www.w3.org/Graphics/SVG/1.1/DTD/svg11.dtd"><svg width="100%" height="100%" viewBox="0 0 439 439" version="1.1" xmlns="http://www.w3.org/2000/svg" xmlns:xlink="http://www.w3.org/1999/xlink" xml:space="preserve" xmlns:serif="http://www.serif.com/" style="fill-rule:evenodd;clip-rule:evenodd;stroke-linejoin:round;stroke-miterlimit:2;"><path d="M219.309,32.434c-103.037,0 -186.875,83.838 -186.875,186.875c0,103.038 83.838,186.876 186.875,186.876c103.038,-0 186.876,-83.838 186.876,-186.876c-0,-103.037 -83.838,-186.875 -186.876,-186.875m0,382.728c-107.987,-0 -195.836,-87.865 -195.836,-195.853c0,-107.987 87.849,-195.852 195.836,-195.852c107.988,-0 195.837,87.865 195.837,195.852c-0,107.988 -87.849,195.853 -195.837,195.853" style="fill:#719ed8;fill-rule:nonzero;"/><path d="M267.431,5.345l-15.46,68.739c-10.72,-2.411 -21.674,-3.627 -32.662,-3.627c-82.154,-0 -148.852,66.698 -148.852,148.852c-0,82.155 66.698,148.853 148.852,148.853c82.155,0 148.853,-66.698 148.853,-148.853c0,-39.478 -15.682,-77.339 -43.598,-105.254l49.821,-49.821c41.128,41.129 64.234,96.911 64.234,155.075c-0,121.041 -98.269,219.31 -219.31,219.31c-121.04,-0 -219.309,-98.269 -219.309,-219.31c0,-121.04 98.269,-219.309 219.309,-219.309c16.189,-0 32.328,1.792 48.122,5.345Z" style="fill:#273e5b;"/></svg>