<?xml version="1.0" encoding="UTF-8" standalone="no"?><!DOCTYPE svg PUBLIC "-//W3C//DTD SVG 1.1//EN" "http://www.w3.org/Graphics/SVG/1.1/DTD/svg11.dtd"><svg width="100%" height="100%" viewBox="0 0 101 53" version="1.1" xmlns="http://www.w3.org/2000/svg" xmlns:xlink="http://www.w3.org/1999/xlink" xml:space="preserve" xmlns:serif="http://www.serif.com/" style="fill-rule:evenodd;clip-rule:evenodd;stroke-linejoin:round;stroke-miterlimit:2;"><g><g id="Capa-1" serif:id="Capa 1"><path d="M62.627,18.309c0.076,6.742 -5.611,12.413 -12.475,12.356c-6.742,-0.056 -12.299,-5.686 -12.282,-12.428c0.016,-6.34 5.077,-12.362 12.402,-12.348c7.433,0.014 12.481,6.143 12.355,12.42" style="fill:#273e5b;fill-rule:nonzero;"/><path d="M38.372,31.358c-1.874,0.714 -3.624,1.769 -5.172,3.129c-2.517,2.211 -4.311,5.062 -5.191,8.244c-0.357,1.293 -0.52,2.586 -0.581,3.886l-6.352,-0c-5.907,-0 -11.815,-0.002 -17.723,0.001c-0.415,-0 -0.83,-0.021 -1.232,-0.119c-1.105,-0.27 -2.042,-1.242 -2.079,-2.352c-0.077,-2.289 -0.115,-4.577 0.507,-6.827c1.6,-5.793 6.607,-10.206 12.551,-11.011c0.821,-0.11 1.643,-0.172 2.472,-0.17c3.742,0.006 7.484,-0.002 11.226,0.003c4.615,0.007 8.754,1.98 11.574,5.216" style="fill:#273e5b;fill-rule:nonzero;"/><path d="M33.438,12.42c0.076,6.742 -5.61,12.413 -12.475,12.356c-6.741,-0.056 -12.299,-5.686 -12.282,-12.428c0.016,-6.34 5.077,-12.362 12.402,-12.348c7.434,0.014 12.481,6.143 12.355,12.42" style="fill:#273e5b;fill-rule:nonzero;"/><path d="M100.218,44.136c-0.06,1.396 -1.286,2.378 -2.868,2.474c-0.191,0.012 -0.382,0.007 -0.574,0.007l-23.663,-0c-0.035,-0.774 -0.113,-1.565 -0.26,-2.352c-0.744,-3.971 -2.832,-7.553 -5.877,-10.087c-1.496,-1.244 -3.197,-2.215 -5.02,-2.88c2.367,-2.668 5.642,-4.499 9.265,-4.989c0.82,-0.11 1.642,-0.172 2.472,-0.17c3.742,0.006 7.484,-0.002 11.226,0.003c7.489,0.011 13.725,5.201 15.105,12.564c0.338,1.8 0.271,3.621 0.194,5.43" style="fill:#273e5b;fill-rule:nonzero;"/><path d="M91.559,12.42c0.076,6.742 -5.61,12.413 -12.475,12.356c-6.741,-0.056 -12.299,-5.686 -12.282,-12.428c0.016,-6.34 5.077,-12.362 12.402,-12.348c7.434,0.014 12.481,6.143 12.355,12.42" style="fill:#273e5b;fill-rule:nonzero;"/><path d="M50.265,52.505c-5.908,0 -11.816,-0 -17.724,0.002c-0.415,0 -0.83,-0.021 -1.232,-0.119c-1.105,-0.27 -2.041,-1.242 -2.078,-2.353c-0.078,-2.288 -0.116,-4.575 0.506,-6.826c1.601,-5.794 6.607,-10.206 12.551,-11.011c0.822,-0.111 1.644,-0.171 2.473,-0.17c3.742,0.005 7.484,-0.002 11.226,0.003c7.488,0.01 13.724,5.2 15.105,12.564c0.337,1.8 0.271,3.62 0.193,5.43c-0.06,1.397 -1.286,2.378 -2.868,2.474c-0.19,0.012 -0.382,0.006 -0.573,0.006c-5.86,0 -11.72,0 -17.579,0" style="fill:#273e5b;fill-rule:nonzero;"/></g></g></svg>