<?xml version="1.0" encoding="UTF-8"?>
<svg id="Capa_1" data-name="Capa 1" xmlns="http://www.w3.org/2000/svg" viewBox="0 0 2048 1152">
  <defs>
    <style>
      .cls-1 {
        fill: #8dc63f;
      }

      .cls-2 {
        fill: #ffbd1a;
      }

      .cls-3 {
        fill: #ef4136;
      }

      .cls-4 {
        fill: #fff;
      }

      .cls-5 {
        fill: #cecece;
      }

      .cls-6 {
        fill: #bc1e1b;
      }

      .cls-7 {
        fill: #231f20;
      }

      .cls-8 {
        fill: #182460;
      }

      .cls-9 {
        fill: #ffd364;
      }

      .cls-10 {
        fill: #ffc200;
      }

      .cls-11 {
        fill: #668e19;
      }
    </style>
  </defs>
  <rect class="cls-4" x="490.09" y="213.71" width="572.62" height="395.5"/>
  <rect class="cls-2" x="542.63" y="260.26" width="467.53" height="302.41"/>
  <polygon class="cls-5" points="490.09 609.21 432.39 703.41 1120.42 703.41 1062.71 609.21 490.09 609.21"/>
  <rect class="cls-4" x="432.4" y="703.41" width="688.02" height="50.16"/>
  <path class="cls-9" d="M959.33,889.06v-45.69l-38.57-26.9c-3.95-2.75-7.09-6.48-9.13-10.83l-19.16-40.97c-3.93-8.45-.06-18.45,8.51-22.02,7.81-3.28,16.8-.08,20.78,7.38,5.96,11.2,13.58,25.47,13.58,25.47h10.4c6.78,0,12.27-5.5,12.27-12.26v-91.49c0-6.03,4.88-10.91,10.93-10.91h13.35v-2.09c0-7.46,6.04-13.49,13.5-13.49h5.39c7.45,0,13.48,6.03,13.48,13.49h13.25c5.31,0,9.6,4.31,9.6,9.6v4.43h5.64c8.23,0,14.91,6.64,14.91,14.93v113.52c0,6.97-2.43,13.78-6.89,19.11l-19.56,23.58v40.48l-72.28,4.68Z"/>
  <path class="cls-10" d="M993.64,645.42c-6.42,1.03-11.34,6.6-11.34,13.33v2.09h-13.36c-6.04,0-10.94,4.88-10.94,10.91v91.49c0,6.77-5.48,12.26-12.25,12.26h-10.4s-7.62-14.27-13.59-25.47c-3.98-7.46-12.97-10.66-20.78-7.38-8.59,3.57-12.45,13.62-8.51,22.02l19.16,40.97c2.03,4.35,5.18,8.08,9.11,10.83l38.59,26.9v45.69l34.3-2.21v-241.43Z"/>
  <rect class="cls-11" x="945.25" y="901.37" width="48.38" height="158.54"/>
  <rect class="cls-1" x="993.03" y="901.37" width="48.38" height="158.54"/>
  <rect class="cls-6" x="935.4" y="874.5" width="57.63" height="58.97"/>
  <rect class="cls-3" x="993.03" y="874.5" width="57.63" height="58.97"/>
  <path class="cls-10" d="M602.92,889.06v-45.69l38.59-26.9c3.94-2.75,7.09-6.48,9.12-10.83l19.16-40.97c3.94-8.45.06-18.45-8.51-22.02-7.79-3.28-16.79-.08-20.78,7.38-5.96,11.2-13.57,25.47-13.57,25.47h-10.42c-6.76,0-12.26-5.5-12.26-12.26v-91.49c0-6.03-4.89-10.91-10.93-10.91h-13.36v-2.09c0-7.46-6.04-13.49-13.49-13.49h-5.38c-7.46,0-13.5,6.03-13.5,13.49h-13.25c-5.3,0-9.6,4.31-9.6,9.6v4.43h-5.64c-8.24,0-14.91,6.64-14.91,14.93v113.52c0,6.97,2.44,13.78,6.9,19.11l19.55,23.58v40.48l72.28,4.68Z"/>
  <path class="cls-9" d="M568.61,645.42c6.44,1.03,11.34,6.6,11.34,13.33v2.09h13.37c6.02,0,10.93,4.88,10.93,10.91v91.49c0,6.77,5.49,12.26,12.27,12.26h10.4s7.61-14.27,13.58-25.47c3.97-7.46,12.97-10.66,20.76-7.38,8.59,3.57,12.46,13.62,8.51,22.02l-19.16,40.97c-2.03,4.35-5.16,8.08-9.11,10.83l-38.59,26.9v45.69l-34.3-2.21v-241.43Z"/>
  <rect class="cls-1" x="568.62" y="901.37" width="48.38" height="158.54"/>
  <rect class="cls-11" x="520.84" y="901.37" width="48.38" height="158.54"/>
  <rect class="cls-3" x="569.23" y="874.5" width="57.63" height="58.97"/>
  <rect class="cls-6" x="511.59" y="874.5" width="57.63" height="58.97"/>
  <path class="cls-7" d="M1174.83,301.02h-6.18v-7.14h6.18v7.14ZM1151.54,301.02h-6.18v-7.14h6.18v7.14ZM1128.24,301.02h-6.18v-7.14h6.18v7.14ZM1104.93,301.02h-6.18v-7.14h6.18v7.14ZM1081.63,301.02h-6.18v-7.14h6.18v7.14ZM1058.32,301.02h-6.18v-7.14h6.18v7.14ZM1035.02,301.02h-6.18v-7.14h6.18v7.14ZM1011.71,301.02h-6.18v-7.14h6.18v7.14ZM988.41,301.02h-6.18v-7.14h6.18v7.14ZM965.09,301.02h-6.18v-7.14h6.18v7.14ZM941.8,301.02h-6.18v-7.14h6.18v7.14ZM918.5,301.02h-6.18v-7.14h6.18v7.14ZM895.18,301.02h-6.18v-7.14h6.18v7.14ZM871.89,301.02h-6.18v-7.14h6.18v7.14ZM848.58,301.02h-6.18v-7.14h6.18v7.14ZM825.28,301.02h-6.18v-7.14h6.18v7.14ZM801.98,301.02h-6.18v-7.14h6.18v7.14ZM778.67,301.02h-6.18v-7.14h6.18v7.14ZM755.37,301.02h-6.18v-7.14h6.18v7.14ZM732.05,301.02h-6.18v-7.14h6.18v7.14ZM708.76,301.02h-6.18v-7.14h6.18v7.14ZM685.46,301.02h-6.18v-7.14h6.18v7.14ZM1189.76,291.67h-7.13v-6.15h7.13v6.15ZM1189.76,268.38h-7.13v-6.19h7.13v6.19ZM1189.76,245.08h-7.13v-6.19h7.13v6.19ZM1189.76,221.79h-7.13v-6.19h7.13v6.19ZM1189.76,198.45h-7.13v-6.19h7.13v6.19ZM1189.76,175.16h-7.13v-6.19h7.13v6.19ZM1189.76,151.87h-7.13v-6.19h7.13v6.19ZM1250.88,143.99h-6.18v-7.09h6.18v7.09ZM1227.56,143.99h-6.18v-7.09h6.18v7.09ZM1204.26,143.99h-6.18v-7.09h6.18v7.09Z"/>
  <path class="cls-7" d="M1361.28,362.08h-6.18v-7.14h6.18v7.14ZM1337.96,362.08h-6.18v-7.14h6.18v7.14ZM1314.67,362.08h-6.18v-7.14h6.18v7.14ZM1291.35,362.08h-6.18v-7.14h6.18v7.14ZM1268.05,362.08h-6.18v-7.14h6.18v7.14ZM1244.76,362.08h-6.18v-7.14h6.18v7.14ZM1221.45,362.08h-6.18v-7.14h6.18v7.14ZM1198.15,362.08h-6.18v-7.14h6.18v7.14ZM1174.83,362.08h-6.18v-7.14h6.18v7.14ZM1151.54,362.08h-6.18v-7.14h6.18v7.14ZM1128.22,362.08h-6.18v-7.14h6.18v7.14ZM1104.93,362.08h-6.18v-7.14h6.18v7.14ZM1081.63,362.08h-6.18v-7.14h6.18v7.14ZM1058.32,362.08h-6.18v-7.14h6.18v7.14ZM1035.02,362.08h-6.18v-7.14h6.18v7.14ZM1011.71,362.08h-6.18v-7.14h6.18v7.14ZM988.41,362.08h-6.18v-7.14h6.18v7.14ZM965.09,362.08h-6.18v-7.14h6.18v7.14ZM941.8,362.08h-6.18v-7.14h6.18v7.14ZM918.5,362.08h-6.18v-7.14h6.18v7.14ZM895.18,362.08h-6.18v-7.14h6.18v7.14ZM871.89,362.08h-6.18v-7.14h6.18v7.14ZM848.58,362.08h-6.18v-7.14h6.18v7.14ZM825.28,362.08h-6.18v-7.14h6.18v7.14ZM801.98,362.08h-6.18v-7.14h6.18v7.14ZM778.67,362.08h-6.18v-7.14h6.18v7.14ZM755.37,362.08h-6.18v-7.14h6.18v7.14ZM732.05,362.08h-6.18v-7.14h6.18v7.14ZM708.76,362.08h-6.18v-7.14h6.18v7.14ZM685.46,362.08h-6.18v-7.14h6.18v7.14Z"/>
  <path class="cls-7" d="M1442.7,543.14h-6.18v-7.14h6.18v7.14ZM1419.4,543.14h-6.18v-7.14h6.18v7.14ZM1396.08,543.14h-6.18v-7.14h6.18v7.14ZM1372.79,543.14h-6.18v-7.14h6.18v7.14ZM1349.49,543.14h-6.18v-7.14h6.18v7.14ZM1326.18,543.14h-6.18v-7.14h6.18v7.14ZM1302.86,543.14h-6.18v-7.14h6.18v7.14ZM1288.91,533.79h-7.13v-6.15h7.13v6.15ZM1288.91,510.5h-7.13v-6.19h7.13v6.19ZM1288.91,487.21h-7.13v-6.19h7.13v6.19ZM1288.91,463.91h-7.13v-6.19h7.13v6.19ZM1288.91,440.58h-7.13v-6.19h7.13v6.19ZM1288.91,417.28h-7.13v-6.03h3.49l-.09-3.57h3.73v9.6ZM1268.05,414.82h-6.18v-7.14h6.18v7.14ZM1244.76,414.82h-6.18v-7.14h6.18v7.14ZM1221.45,414.82h-6.18v-7.14h6.18v7.14ZM1198.15,414.82h-6.18v-7.14h6.18v7.14ZM1174.83,414.82h-6.18v-7.14h6.18v7.14ZM1151.54,414.82h-6.18v-7.14h6.18v7.14ZM1128.22,414.82h-6.18v-7.14h6.18v7.14ZM1104.93,414.82h-6.18v-7.14h6.18v7.14ZM1081.63,414.82h-6.18v-7.14h6.18v7.14ZM1058.32,414.82h-6.18v-7.14h6.18v7.14ZM1035.02,414.82h-6.18v-7.14h6.18v7.14ZM1011.71,414.82h-6.18v-7.14h6.18v7.14ZM988.41,414.82h-6.18v-7.14h6.18v7.14ZM965.09,414.82h-6.18v-7.14h6.18v7.14ZM941.8,414.82h-6.18v-7.14h6.18v7.14ZM918.5,414.82h-6.18v-7.14h6.18v7.14ZM895.18,414.82h-6.18v-7.14h6.18v7.14ZM871.89,414.82h-6.18v-7.14h6.18v7.14ZM848.58,414.82h-6.18v-7.14h6.18v7.14ZM825.28,414.82h-6.18v-7.14h6.18v7.14ZM801.98,414.82h-6.18v-7.14h6.18v7.14ZM778.67,414.82h-6.18v-7.14h6.18v7.14ZM755.37,414.82h-6.18v-7.14h6.18v7.14ZM732.05,414.82h-6.18v-7.14h6.18v7.14ZM708.76,414.82h-6.18v-7.14h6.18v7.14ZM685.46,414.82h-6.18v-7.14h6.18v7.14Z"/>
  <path class="cls-7" d="M1246.51,728.92h-6.18v-7.14h6.18v7.14ZM1269.82,728.88h-6.18v-7.14h6.18v7.14ZM1293.12,728.88h-6.18v-7.14h6.18v7.14ZM1333.55,728.88v-7.18s6.16,0,6.16,0l.02,7.14-6.18.04ZM1316.42,728.88h-6.18v-7.18h6.18v7.18ZM1238.21,713.91h-7.13v-6.19h7.13v6.19ZM1238.21,690.61h-7.13v-6.19h7.13v6.19ZM1238.21,667.28h-7.13v-6.19h7.13v6.19ZM1238.21,643.99h-7.13v-6.19h7.13v6.19ZM1238.21,620.69h-7.13v-6.19h7.13v6.19ZM1238.21,597.36h-7.13v-6.15h7.13v6.15ZM1238.21,574.06h-7.13v-6.15h7.13v6.15ZM1238.21,550.77h-7.13v-6.19h7.13v6.19ZM1238.21,527.48h-7.13v-6.19h7.13v6.19ZM1238.21,504.14h-7.13v-6.15h7.13v6.15ZM1238.21,480.85h-7.13v-6.15h7.13v6.15ZM1221.45,474.33h-6.18v-7.14h6.18v7.14ZM1198.15,474.33h-6.18v-7.14h6.18v7.14ZM1174.83,474.33h-6.18v-7.14h6.18v7.14ZM1151.54,474.33h-6.18v-7.14h6.18v7.14ZM1128.24,474.33h-6.18v-7.14h6.18v7.14ZM1104.93,474.33h-6.18v-7.14h6.18v7.14ZM1081.63,474.33h-6.18v-7.14h6.18v7.14ZM1058.32,474.33h-6.18v-7.14h6.18v7.14ZM1035.02,474.33h-6.18v-7.14h6.18v7.14ZM1011.71,474.33h-6.18v-7.14h6.18v7.14ZM988.41,474.33h-6.18v-7.14h6.18v7.14ZM965.09,474.33h-6.18v-7.14h6.18v7.14ZM941.8,474.33h-6.18v-7.14h6.18v7.14ZM918.5,474.33h-6.18v-7.14h6.18v7.14ZM895.18,474.33h-6.18v-7.14h6.18v7.14ZM871.89,474.33h-6.18v-7.14h6.18v7.14ZM848.58,474.33h-6.18v-7.14h6.18v7.14ZM825.28,474.33h-6.18v-7.14h6.18v7.14ZM801.98,474.33h-6.18v-7.14h6.18v7.14ZM778.67,474.33h-6.18v-7.14h6.18v7.14ZM755.37,474.33h-6.18v-7.14h6.18v7.14ZM732.05,474.33h-6.18v-7.14h6.18v7.14ZM708.76,474.33h-6.18v-7.14h6.18v7.14ZM685.46,474.33h-6.18v-7.14h6.18v7.14Z"/>
  <path class="cls-10" d="M1379.13,358.52c0,10.05-8.18,18.21-18.24,18.21s-18.26-8.16-18.26-18.21,8.16-18.29,18.26-18.29,18.24,8.2,18.24,18.29"/>
  <path class="cls-10" d="M1286.07,140.42c0,10.09-8.18,18.29-18.26,18.29s-18.26-8.2-18.26-18.29,8.18-18.21,18.26-18.21,18.26,8.16,18.26,18.21"/>
  <path class="cls-10" d="M1463.91,539.58c0,10.09-8.17,18.25-18.26,18.25s-18.24-8.16-18.24-18.25,8.16-18.25,18.24-18.25,18.26,8.16,18.26,18.25"/>
  <path class="cls-10" d="M1374.65,725.27c0,10.09-8.18,18.25-18.25,18.25s-18.25-8.16-18.25-18.25,8.16-18.25,18.25-18.25,18.25,8.2,18.25,18.25"/>
  <path class="cls-7" d="M1432.48,177.21h-111.2v-85.96h111.2v85.96ZM1326.04,172.45h101.69v-76.48h-101.69v76.48Z"/>
  <path class="cls-7" d="M1432.48,208.87h-111.2v-36.42h111.2v36.42ZM1326.04,204.11h101.69v-26.9h-101.69v26.9Z"/>
  <rect class="cls-7" x="1368.33" y="183.85" width="35.05" height="4.76"/>
  <rect class="cls-7" x="1368.32" y="192.84" width="47.89" height="4.76"/>
  <path class="cls-11" d="M1392.11,122.01c0,9.27-7.51,16.73-16.76,16.73s-16.78-7.46-16.78-16.73,7.51-16.77,16.78-16.77,16.76,7.51,16.76,16.77"/>
  <path class="cls-11" d="M1392.5,161.18h-34.31v-5.04c0-9.47,7.68-17.14,17.15-17.14s17.16,7.67,17.16,17.14v5.04Z"/>
  <path class="cls-7" d="M1346.7,201.24l-1.07-.53c-.11-.04-10.04-5.33-10.04-11.61,0-4.31,2.92-7.46,6.93-7.46,1.41,0,2.93.62,4.18,1.44,1.26-.82,2.76-1.44,4.18-1.44,4.03,0,6.93,3.16,6.93,7.46,0,6.27-9.91,11.56-10.02,11.61l-1.09.53ZM1342.52,186.4c-1.6,0-2.17,1.48-2.17,2.71,0,1.93,3.67,5.09,6.35,6.73,2.69-1.64,6.36-4.8,6.36-6.73,0-.45-.11-2.71-2.18-2.71-.51,0-1.77.66-2.46,1.35l-1.71,1.76-1.71-1.72c-.73-.74-1.97-1.39-2.49-1.39"/>
  <polygon class="cls-7" points="1420.94 771.86 1398.97 707.59 1448.7 690.53 1450.24 695.04 1404.99 710.55 1423.9 765.83 1453 755.86 1454.56 760.33 1420.94 771.86"/>
  <polygon class="cls-7" points="1427.09 789.86 1419.41 767.39 1453 755.86 1454.55 760.33 1425.45 770.34 1430.04 783.83 1494.88 761.69 1493.93 758.86 1498.44 757.34 1500.87 764.64 1427.09 789.86"/>
  <polygon class="cls-11" points="1449.47 711.98 1448.54 711.41 1441.63 734 1433.18 729.37 1427.19 748.28 1449.47 740.57 1449.47 711.98"/>
  <path class="cls-7" d="M1525.13,741.47h-78.02v-67.91h78.02v67.91ZM1451.87,736.71h68.51v-58.4h-68.51v58.4Z"/>
  <polygon class="cls-7" points="1505.56 760.46 1447.08 760.46 1447.08 736.67 1525.15 736.67 1525.15 751.97 1520.39 751.97 1520.39 741.43 1451.85 741.43 1451.85 755.74 1505.56 755.74 1505.56 760.46"/>
  <polygon class="cls-11" points="1460.57 721.13 1472.4 705.17 1478.95 712.39 1492.84 693.16 1512.38 721.13 1460.57 721.13"/>
  <path class="cls-7" d="M1525.34,789.24h-23.31v-26.37c0-7.38,5.99-13.33,13.34-13.33h13.63v-8.82l31.72,20.42-31.72,20.51v-8.86h-2.43c-.68,0-1.23.57-1.23,1.27v15.17ZM1506.79,784.49h13.79v-10.42c0-3.32,2.69-5.99,5.99-5.99h7.19v4.84l18.18-11.77-18.18-11.69v4.8h-18.4c-4.73,0-8.58,3.9-8.58,8.61v21.61Z"/>
  <polygon class="cls-7" points="1508.48 398.87 1415.43 398.87 1415.43 311.44 1528.37 311.44 1528.37 387.88 1523.62 387.88 1523.62 316.19 1420.18 316.19 1420.18 394.11 1508.48 394.11 1508.48 398.87"/>
  <path class="cls-7" d="M1528.31,334.69h-112.91v-23.21h112.91v23.21ZM1420.17,329.93h103.39v-13.7h-103.39v13.7Z"/>
  <polygon class="cls-11" points="1458.19 344.86 1490.41 363.48 1458.19 382.06 1458.19 344.86"/>
  <path class="cls-7" d="M1431.8,323.08c0,1.44-1.19,2.62-2.63,2.62s-2.63-1.19-2.63-2.62,1.19-2.62,2.63-2.62,2.63,1.15,2.63,2.62"/>
  <path class="cls-7" d="M1440.3,323.08c0,1.44-1.17,2.62-2.61,2.62s-2.63-1.19-2.63-2.62,1.17-2.62,2.63-2.62,2.61,1.15,2.61,2.62"/>
  <path class="cls-7" d="M1448.8,323.08c0,1.44-1.17,2.62-2.61,2.62s-2.63-1.19-2.63-2.62,1.17-2.62,2.63-2.62,2.61,1.15,2.61,2.62"/>
  <path class="cls-7" d="M1507.29,413.39c-.75,0-1.52-.25-2.17-.7-1.3-.94-1.84-2.62-1.35-4.14l3.3-10.13-8.62-6.23c-1.29-.94-1.85-2.62-1.34-4.14.49-1.52,1.91-2.54,3.5-2.54h10.65l3.29-10.13c.98-3.08,6.04-3.08,7.04,0l3.27,10.13h10.65c1.61,0,3.01,1.03,3.52,2.54.49,1.52-.05,3.2-1.34,4.14l-8.62,6.23,3.29,10.13c.49,1.52-.05,3.2-1.34,4.14-1.29.94-3.03.94-4.35,0l-8.61-6.27-8.62,6.27c-.64.45-1.4.7-2.17.7M1518.07,401.41c.75,0,1.52.25,2.17.7l6.59,4.8-2.52-7.75c-.49-1.52.05-3.2,1.35-4.1l6.59-4.8h-8.16c-1.58,0-2.99-1.03-3.5-2.54l-2.52-7.75-2.53,7.75c-.48,1.52-1.89,2.54-3.5,2.54h-8.14l6.59,4.8c1.29.94,1.83,2.58,1.35,4.1l-2.53,7.75,6.59-4.8c.65-.45,1.41-.7,2.18-.7"/>
  <path class="cls-7" d="M1232.37,894.44h-5.73v-7.14h5.73v7.14ZM1209.52,894.44h-6.18v-7.14h6.18v7.14ZM1186.21,894.44h-6.18v-7.14h6.18v7.14ZM1178.95,878.4h-7.13v-6.19h7.13v6.19ZM1178.95,855.11h-7.13v-6.19h7.13v6.19ZM1178.95,831.81h-7.13v-6.19h7.13v6.19ZM1178.95,808.52h-7.13v-6.19h7.13v6.19ZM1178.95,785.18h-7.13v-6.19h7.13v6.19ZM1178.95,761.89h-7.13v-6.19h7.13v6.19ZM1178.95,738.6h-7.13v-6.19h7.13v6.19ZM1178.95,715.26h-7.13v-6.15h7.13v6.15ZM1178.95,691.97h-7.13v-6.15h7.13v6.15ZM1178.95,668.67h-7.13v-6.19h7.13v6.19ZM1178.95,645.34h-7.13v-6.15h7.13v6.15ZM1178.95,622.09h-7.13v-6.19h7.13v6.19ZM1178.95,598.75h-7.13v-6.15h7.13v6.15ZM1165.97,588.46h-6.18v-7.14h6.18v7.14ZM1142.65,588.46h-6.18v-7.14h6.18v7.14ZM1119.36,588.46h-5.39v-7.92h7.12v4.35h-1.72v3.57ZM1121.08,563.4h-7.13v-6.15h7.13v6.15ZM1121.08,540.11h-7.13v-6.19h7.13v6.19ZM1104.93,532.97h-6.18v-7.14h6.18v7.14ZM1081.63,532.97h-6.18v-7.14h6.18v7.14ZM1058.32,532.97h-6.18v-7.14h6.18v7.14ZM1035.02,532.97h-6.18v-7.14h6.18v7.14ZM1011.71,532.97h-6.18v-7.14h6.18v7.14ZM988.41,532.97h-6.18v-7.14h6.18v7.14ZM965.09,532.97h-6.18v-7.14h6.18v7.14ZM941.8,532.97h-6.18v-7.14h6.18v7.14ZM918.5,532.97h-6.18v-7.14h6.18v7.14ZM895.18,532.97h-6.18v-7.14h6.18v7.14ZM871.89,532.97h-6.18v-7.14h6.18v7.14ZM848.58,532.97h-6.18v-7.14h6.18v7.14ZM825.28,532.97h-6.18v-7.14h6.18v7.14ZM801.98,532.97h-6.18v-7.14h6.18v7.14ZM778.67,532.97h-6.18v-7.14h6.18v7.14ZM755.37,532.97h-6.18v-7.14h6.18v7.14ZM732.05,532.97h-6.18v-7.14h6.18v7.14ZM708.76,532.97h-6.18v-7.14h6.18v7.14ZM685.46,532.97h-6.18v-7.14h6.18v7.14Z"/>
  <path class="cls-11" d="M1390.76,880.29c0,10.58-8.61,19.19-19.36,19.19-9.53,0-17.36-6.89-18.9-15.99,4.3-4.43,6.91-10.42,6.91-17.02,0-.33,0-.61-.15-.94,3.23-2.75,7.53-4.47,12.14-4.47,10.76,0,19.36,8.65,19.36,19.23"/>
  <path class="cls-11" d="M1391.22,919.45v5.7h-31.2v-7.5c0-4.18-.92-8.16-2.92-11.73,3.54-3.81,8.76-6.11,14.29-6.11,10.91,0,19.82,8.74,19.82,19.64"/>
  <path class="cls-7" d="M1334.24,893.94c-15.2,0-27.55-12.34-27.55-27.56s12.36-27.56,27.55-27.56,27.55,12.34,27.55,27.56-12.36,27.56-27.55,27.56M1334.24,843.58c-12.57,0-22.79,10.21-22.79,22.8s10.22,22.8,22.79,22.8,22.81-10.21,22.81-22.8-10.23-22.8-22.81-22.8"/>
  <path class="cls-7" d="M1324.98,927.53h-18.82v-9.92c0-4.27,1-8.53,2.88-12.26l4.24,2.13c-1.54,3.08-2.35,6.6-2.35,10.13v5.17h14.06v4.76Z"/>
  <path class="cls-7" d="M1362.41,927.53h-28.2v-4.76h23.43v-5.17c0-3.86-.87-7.42-2.6-10.5-3.95-8.04-11.91-12.92-20.84-12.92-5.86,0-11.33,2.17-15.4,6.11l-.69.66h-.97l-.08-2.46-1.57-1.64c4.97-4.8,11.6-7.42,18.7-7.42,10.76,0,20.35,5.91,25.03,15.46,2.08,3.69,3.17,8,3.17,12.71v9.92Z"/>
  <path class="cls-7" d="M1305.51,956.11c-.74,0-1.49-.04-2.25-.08-8.3-.57-15.87-4.39-21.33-10.66-5.45-6.32-8.14-14.31-7.56-22.64.6-8.28,4.38-15.87,10.67-21.33,6.29-5.45,14.39-8.04,22.62-7.55,8.3.57,15.87,4.35,21.33,10.66,5.45,6.27,8.14,14.31,7.54,22.6-.58,8.33-4.36,15.87-10.65,21.33-5.72,5-12.88,7.67-20.38,7.67M1305.43,898.54c-6.36,0-12.43,2.26-17.27,6.48-5.34,4.59-8.55,11.03-9.04,18.04-.49,7.05,1.77,13.86,6.39,19.19,4.63,5.33,11.05,8.53,18.09,9.02,6.96.53,13.84-1.76,19.16-6.4,5.33-4.63,8.54-11.03,9.03-18.09.49-7.05-1.78-13.82-6.41-19.15-4.61-5.33-11.04-8.53-18.07-9.06-.63-.04-1.26-.04-1.89-.04M1305.49,946.85c-.52,0-1.05-.04-1.58-.08-5.84-.41-11.16-3.08-14.99-7.46-3.83-4.43-5.72-10.05-5.3-15.91.4-5.82,3.08-11.15,7.48-15.01,4.43-3.81,10.07-5.78,15.89-5.29,5.84.41,11.16,3.12,15,7.5,7.9,9.1,6.93,22.97-2.18,30.88-4.02,3.49-9.05,5.37-14.32,5.37M1305.43,907.8c-4.12,0-8.05,1.48-11.2,4.18-3.46,3.03-5.55,7.18-5.87,11.73-.31,4.59,1.15,8.98,4.16,12.47,3,3.45,7.16,5.54,11.72,5.86,4.63.33,8.99-1.19,12.45-4.18,7.13-6.19,7.9-17.02,1.71-24.15-3-3.49-7.18-5.58-11.73-5.86-.41-.04-.83-.04-1.24-.04"/>
  <rect class="cls-7" x="1269.01" y="947.61" width="15.15" height="4.75" transform="translate(-309.36 1080.07) rotate(-41.34)"/>
  <path class="cls-7" d="M1248.1,982.57c-.2,0-.37-.04-.55-.04-2.01-.12-3.86-1.07-5.18-2.58-2.74-3.16-2.4-7.96.75-10.66l19.03-16.53c3.13-2.67,7.93-2.38,10.66.74,1.34,1.56,1.98,3.53,1.83,5.54-.14,2.01-1.06,3.81-2.58,5.17l-19.02,16.53c-1.39,1.19-3.12,1.85-4.93,1.85M1267.11,955.66c-.64,0-1.3.25-1.85.7l-19.02,16.53c-.57.45-.91,1.15-.95,1.89-.06.74.18,1.48.68,2.05s1.17.9,1.92.94c.69.16,1.46-.16,2.03-.66l19.02-16.53c.57-.49.91-1.19.97-1.93.05-.74-.2-1.44-.68-2.01-.55-.66-1.34-.98-2.12-.98"/>
  <rect class="cls-7" x="1271.54" y="861.01" width="4.77" height="28.83"/>
  <rect class="cls-7" x="1259.53" y="873.07" width="28.83" height="4.76"/>
  <rect class="cls-7" x="1361.84" y="943.07" width="4.77" height="21.28"/>
  <rect class="cls-7" x="1353.58" y="951.36" width="21.32" height="4.76"/>
  <path class="cls-7" d="M1362.41,925.15h-4.77v-7.5c0-3.9-.87-7.46-2.6-10.54l4.13-2.34c2.14,3.81,3.23,8.12,3.23,12.88v7.5Z"/>
  <path class="cls-10" d="M1250.63,890.87c0,10.09-8.17,18.29-18.26,18.29s-18.24-8.2-18.24-18.29,8.16-18.21,18.24-18.21,18.26,8.16,18.26,18.21"/>
  <path class="cls-7" d="M1606.37,535.35c-.83,0-1.52-.25-2.08-.41l1.43-4.55.05.04c.2.04.51.16.62.16,2.15,0,4.67-4.22,4.67-9.6s-2.52-9.64-4.69-9.64c-.11,0-.48.12-.62.21l-1.53-4.51c.63-.2,1.34-.45,2.15-.45,5.3,0,9.45,6.32,9.45,14.39s-4.15,14.35-9.45,14.35"/>
  <path class="cls-7" d="M1607.45,576.4l-16.56-14.52c-17.43-15.34-28.69-22.15-49.24-22.15h-1.4l-6.29-11.24h-5.52l2.75-4.92-2.75-4.92h5.52l6.29-11.24h1.4c20.56,0,31.81-6.85,49.24-22.15l16.56-14.56v105.68ZM1543.04,534.98c23.07.37,35.73,9.92,50.98,23.33l8.67,7.59v-84.69l-8.67,7.63c-15.24,13.37-27.91,22.92-50.98,23.29l-6.48,11.28.09.16-.09.16h.18l6.3,11.24Z"/>
  <path class="cls-7" d="M1542.47,593.34h-40.64v-54.95h26.66l13.98,54.95ZM1506.59,588.58h29.77l-11.56-45.44h-18.21v45.44Z"/>
  <rect class="cls-11" x="1490.8" y="502.67" width="53.94" height="41.79"/>
  <path class="cls-8" d="M586.23,289.78c0,1.89-.59,3.53-1.72,4.84-1.15,1.35-2.81,2.34-4.99,2.95v.12c5.07.66,7.61,3.03,7.61,7.18,0,2.83-1.12,5.09-3.35,6.68-2.24,1.6-5.35,2.42-9.31,2.42-1.64,0-3.15-.12-4.55-.33-1.38-.25-2.89-.7-4.5-1.31v-6.81c1.32.7,2.67,1.19,4.06,1.52,1.39.33,2.65.49,3.81.49,1.8,0,3.1-.29,3.93-.78.82-.49,1.23-1.27,1.23-2.38,0-.82-.22-1.48-.65-1.89-.43-.49-1.12-.82-2.08-1.03-.95-.25-2.19-.37-3.73-.37h-1.86v-6.15h1.91c4.17,0,6.24-1.07,6.24-3.2,0-.82-.31-1.39-.92-1.8-.62-.37-1.43-.57-2.48-.57-1.94,0-3.95.66-6.02,1.97l-3.41-5.5c1.61-1.11,3.26-1.89,4.93-2.38,1.69-.45,3.61-.7,5.79-.7,3.14,0,5.59.62,7.39,1.89,1.78,1.23,2.67,2.95,2.67,5.13"/>
  <path class="cls-8" d="M603.07,293.68c1.73,0,3.32.41,4.72,1.23,1.41.78,2.51,1.93,3.29,3.4.78,1.52,1.17,3.2,1.17,5.13,0,3.4-1.02,6.03-3.06,7.83-2.04,1.8-5.13,2.71-9.28,2.71-3.54,0-6.43-.53-8.67-1.64v-6.73c1.21.53,2.57,1.03,4.09,1.39,1.51.33,2.81.53,3.9.53,1.52,0,2.69-.33,3.52-.98.81-.66,1.21-1.6,1.21-2.87,0-1.15-.41-2.05-1.25-2.71-.83-.66-2.09-.94-3.78-.94-1.29,0-2.67.25-4.18.7l-3-1.48,1.14-16.04h17.32v6.85h-10.34l-.37,3.98c1.07-.21,1.85-.33,2.29-.33.46-.04.89-.04,1.28-.04"/>
  <path class="cls-8" d="M631.04,292.28c0,3.04-.69,5.37-2.06,7.05-1.37,1.68-3.32,2.5-5.86,2.5-2.38,0-4.26-.86-5.66-2.58-1.38-1.72-2.09-4.06-2.09-6.97,0-3.08.69-5.41,2.05-7.05,1.35-1.64,3.26-2.46,5.7-2.46s4.35.86,5.78,2.58c1.41,1.68,2.14,3.98,2.14,6.93M621.63,292.37c0,1.56.14,2.75.4,3.45.26.7.64,1.07,1.18,1.07s.92-.37,1.17-1.07c.26-.7.39-1.85.39-3.45s-.12-2.75-.39-3.49c-.25-.7-.64-1.03-1.17-1.03-.55,0-.94.37-1.2,1.07-.26.74-.39,1.89-.39,3.44M646.18,283.22l-16.84,30.35h-6.16l16.83-30.35h6.18ZM654.12,304.34c0,3.03-.69,5.41-2.06,7.05-1.38,1.68-3.33,2.5-5.84,2.5s-4.27-.86-5.67-2.58c-1.38-1.72-2.08-4.02-2.08-6.97s.68-5.37,2.03-7.01c1.35-1.64,3.26-2.46,5.72-2.46s4.33.86,5.76,2.54c1.43,1.72,2.14,4.02,2.14,6.93M644.72,304.42c0,1.6.14,2.75.4,3.44.26.74.66,1.07,1.19,1.07.6,0,1-.41,1.23-1.19.23-.82.35-1.93.35-3.32s-.12-2.46-.35-3.28c-.23-.82-.63-1.19-1.23-1.19-.54,0-.94.33-1.2,1.07-.25.7-.39,1.85-.39,3.4"/>
  <path class="cls-8" d="M583.5,369.14h-8.33v-16.08c0-1.93.05-3.73.12-5.37-.51.62-1.14,1.31-1.91,1.97l-3.44,2.83-4.26-5.21,10.42-8.49h7.39v30.35Z"/>
  <path class="cls-8" d="M603.07,349.25c1.73,0,3.32.41,4.72,1.19,1.41.82,2.51,1.97,3.29,3.44s1.17,3.2,1.17,5.13c0,3.4-1.02,5.99-3.06,7.83-2.04,1.8-5.13,2.71-9.28,2.71-3.54,0-6.43-.57-8.67-1.64v-6.73c1.21.53,2.57.98,4.09,1.35,1.51.37,2.81.57,3.9.57,1.52,0,2.69-.33,3.52-.98.81-.66,1.21-1.6,1.21-2.87,0-1.15-.41-2.05-1.25-2.71-.83-.66-2.09-.98-3.78-.98-1.29,0-2.67.25-4.18.74l-3-1.48,1.14-16.03h17.32v6.81h-10.34l-.37,4.02c1.07-.21,1.85-.33,2.29-.33.46-.04.89-.04,1.28-.04"/>
  <path class="cls-8" d="M631.04,347.81c0,3.08-.69,5.41-2.06,7.09-1.37,1.68-3.32,2.5-5.86,2.5-2.38,0-4.26-.86-5.66-2.58-1.38-1.72-2.09-4.06-2.09-7.01s.69-5.37,2.05-7.01c1.35-1.64,3.26-2.46,5.7-2.46s4.35.86,5.78,2.54c1.41,1.72,2.14,4.02,2.14,6.93M621.63,347.94c0,1.56.14,2.71.4,3.44.26.7.64,1.03,1.18,1.03s.92-.33,1.17-1.03c.26-.7.39-1.85.39-3.44s-.12-2.79-.39-3.49c-.25-.7-.64-1.07-1.17-1.07-.55,0-.94.37-1.2,1.11-.26.74-.39,1.85-.39,3.44M646.18,338.79l-16.84,30.35h-6.16l16.83-30.35h6.18ZM654.12,359.91c0,3.03-.69,5.37-2.06,7.05-1.38,1.68-3.33,2.5-5.84,2.5s-4.27-.86-5.67-2.58c-1.38-1.72-2.08-4.06-2.08-6.97s.68-5.37,2.03-7.01c1.35-1.64,3.26-2.46,5.72-2.46s4.33.86,5.76,2.54c1.43,1.68,2.14,4.02,2.14,6.93M644.72,359.99c0,1.6.14,2.75.4,3.45.26.7.66,1.07,1.19,1.07.6,0,1-.41,1.23-1.23.23-.82.35-1.89.35-3.28s-.12-2.5-.35-3.28c-.23-.82-.63-1.23-1.23-1.23-.54,0-.94.37-1.2,1.11-.25.7-.39,1.85-.39,3.4"/>
  <path class="cls-8" d="M587.24,426.55h-22.02v-5.41l7.41-7.5c2.12-2.21,3.5-3.73,4.15-4.51.64-.82,1.1-1.52,1.37-2.09.25-.62.39-1.19.39-1.85,0-.78-.26-1.39-.77-1.85-.52-.49-1.23-.7-2.17-.7s-1.92.29-2.89.82c-.98.53-2.09,1.35-3.32,2.42l-4.5-5.29c1.57-1.39,2.87-2.38,3.95-2.99,1.06-.57,2.23-1.07,3.47-1.35,1.25-.33,2.66-.49,4.23-.49,1.96,0,3.72.33,5.27,1.03,1.54.7,2.74,1.68,3.58,2.95.86,1.27,1.28,2.75,1.28,4.31,0,1.19-.14,2.3-.44,3.32-.3.98-.75,2.01-1.39,2.99-.62.94-1.44,1.97-2.47,3.08-1.03,1.07-3.23,3.12-6.59,6.11v.25h11.48v6.77Z"/>
  <path class="cls-8" d="M603.07,406.66c1.73,0,3.32.37,4.72,1.19,1.41.82,2.51,1.97,3.29,3.44s1.17,3.2,1.17,5.13c0,3.4-1.02,5.99-3.06,7.79-2.04,1.85-5.13,2.75-9.28,2.75-3.54,0-6.43-.57-8.67-1.64v-6.77c1.21.57,2.57,1.03,4.09,1.39,1.51.37,2.81.53,3.9.53,1.52,0,2.69-.33,3.52-.94.81-.66,1.21-1.6,1.21-2.87,0-1.15-.41-2.05-1.25-2.71-.83-.66-2.09-.98-3.78-.98-1.29,0-2.67.25-4.18.74l-3-1.52,1.14-16.04h17.32v6.85h-10.34l-.37,4.02c1.07-.21,1.85-.33,2.29-.37h1.28"/>
  <path class="cls-8" d="M631.04,405.23c0,3.03-.69,5.41-2.06,7.05-1.37,1.68-3.32,2.54-5.86,2.54-2.38,0-4.26-.86-5.66-2.58-1.38-1.72-2.09-4.06-2.09-7.01s.69-5.37,2.05-7.01c1.35-1.64,3.26-2.46,5.7-2.46s4.35.82,5.78,2.54c1.41,1.72,2.14,4.02,2.14,6.93M621.63,405.31c0,1.6.14,2.75.4,3.44.26.74.64,1.07,1.18,1.07s.92-.33,1.17-1.03c.26-.7.39-1.85.39-3.49s-.12-2.75-.39-3.44c-.25-.7-.64-1.07-1.17-1.07-.55,0-.94.37-1.2,1.11-.26.7-.39,1.85-.39,3.4M646.18,396.16l-16.84,30.35h-6.16l16.83-30.35h6.18ZM654.12,417.32c0,3.03-.69,5.37-2.06,7.05-1.38,1.64-3.33,2.5-5.84,2.5s-4.27-.86-5.67-2.58c-1.38-1.76-2.08-4.06-2.08-6.97,0-3.08.68-5.41,2.03-7.05,1.35-1.6,3.26-2.46,5.72-2.46s4.33.86,5.76,2.58c1.43,1.68,2.14,4.02,2.14,6.93M644.72,417.41c0,1.6.14,2.75.4,3.45.26.7.66,1.07,1.19,1.07.6,0,1-.41,1.23-1.23.23-.82.35-1.89.35-3.28s-.12-2.5-.35-3.28c-.23-.82-.63-1.23-1.23-1.23-.54,0-.94.37-1.2,1.07-.25.74-.39,1.89-.39,3.44"/>
  <path class="cls-8" d="M583.5,483.02h-8.33v-16.08c0-1.97.05-3.73.12-5.37-.51.62-1.14,1.27-1.91,1.97l-3.44,2.83-4.26-5.21,10.42-8.49h7.39v30.35Z"/>
  <path class="cls-8" d="M612.71,467.89c0,5.37-.91,9.27-2.71,11.77-1.8,2.5-4.55,3.77-8.25,3.77s-6.36-1.31-8.21-3.94c-1.85-2.58-2.77-6.48-2.77-11.61,0-5.41.91-9.39,2.71-11.89,1.8-2.54,4.55-3.77,8.27-3.77s6.33,1.31,8.17,3.94c1.86,2.62,2.78,6.52,2.78,11.73M598.94,467.89c0,3.44.22,5.78.64,7.05.43,1.27,1.16,1.93,2.17,1.93s1.73-.66,2.17-1.97c.41-1.35.63-3.69.63-7.01s-.22-5.74-.64-7.09c-.43-1.35-1.14-2.01-2.15-2.01s-1.74.66-2.17,1.93c-.43,1.31-.64,3.69-.64,7.18"/>
  <path class="cls-8" d="M631.04,461.7c0,3.03-.69,5.41-2.06,7.09-1.37,1.64-3.32,2.5-5.86,2.5-2.38,0-4.26-.86-5.66-2.58-1.38-1.72-2.09-4.06-2.09-7.01s.69-5.37,2.05-7.01c1.35-1.64,3.26-2.46,5.7-2.46s4.35.86,5.78,2.54c1.41,1.72,2.14,4.02,2.14,6.93M621.63,461.78c0,1.6.14,2.75.4,3.44.26.74.64,1.07,1.18,1.07s.92-.33,1.17-1.03c.26-.7.39-1.85.39-3.49s-.12-2.75-.39-3.44c-.25-.7-.64-1.07-1.17-1.07-.55,0-.94.37-1.2,1.11-.26.7-.39,1.85-.39,3.4M646.18,452.63l-16.84,30.39h-6.16l16.83-30.39h6.18ZM654.12,473.79c0,3.03-.69,5.37-2.06,7.05-1.38,1.68-3.33,2.5-5.84,2.5s-4.27-.86-5.67-2.58c-1.38-1.76-2.08-4.06-2.08-6.97,0-3.08.68-5.37,2.03-7.05,1.35-1.6,3.26-2.46,5.72-2.46s4.33.86,5.76,2.58c1.43,1.68,2.14,4.02,2.14,6.93M644.72,473.88c0,1.6.14,2.75.4,3.44.26.7.66,1.07,1.19,1.07.6,0,1-.41,1.23-1.23.23-.82.35-1.89.35-3.28s-.12-2.5-.35-3.28c-.23-.82-.63-1.23-1.23-1.23-.54,0-.94.37-1.2,1.07-.25.74-.39,1.89-.39,3.44"/>
  <path class="cls-8" d="M583.5,539.49h-8.33v-16.08c0-1.93.05-3.73.12-5.33-.51.62-1.14,1.27-1.91,1.93l-3.44,2.87-4.26-5.25,10.42-8.49h7.39v30.35Z"/>
  <path class="cls-8" d="M603.07,519.6c1.73,0,3.32.41,4.72,1.23,1.41.78,2.51,1.93,3.29,3.4.78,1.52,1.17,3.2,1.17,5.17,0,3.36-1.02,5.99-3.06,7.79-2.04,1.8-5.13,2.71-9.28,2.71-3.54,0-6.43-.53-8.67-1.64v-6.73c1.21.53,2.57,1.03,4.09,1.39,1.51.33,2.81.53,3.9.53,1.52,0,2.69-.33,3.52-.98.81-.66,1.21-1.6,1.21-2.83s-.41-2.09-1.25-2.75c-.83-.66-2.09-.94-3.78-.94-1.29,0-2.67.25-4.18.7l-3-1.48,1.14-16.04h17.32v6.85h-10.34l-.37,3.98c1.07-.2,1.85-.33,2.29-.33.46-.04.89-.04,1.28-.04"/>
  <path class="cls-8" d="M631.04,518.21c0,3.03-.69,5.41-2.06,7.05-1.37,1.68-3.32,2.5-5.86,2.5-2.38,0-4.26-.86-5.66-2.58-1.38-1.72-2.09-4.06-2.09-6.97,0-3.08.69-5.41,2.05-7.05,1.35-1.64,3.26-2.46,5.7-2.46s4.35.86,5.78,2.58c1.41,1.68,2.14,3.98,2.14,6.93M621.63,518.29c0,1.56.14,2.75.4,3.44.26.7.64,1.07,1.18,1.07s.92-.37,1.17-1.07c.26-.7.39-1.85.39-3.44s-.12-2.75-.39-3.45c-.25-.74-.64-1.07-1.17-1.07-.55,0-.94.37-1.2,1.07-.26.74-.39,1.89-.39,3.45M646.18,509.15l-16.84,30.35h-6.16l16.83-30.35h6.18ZM654.12,530.31c0,2.99-.69,5.37-2.06,7.01-1.38,1.68-3.33,2.5-5.84,2.5s-4.27-.86-5.67-2.58c-1.38-1.72-2.08-4.02-2.08-6.93,0-3.08.68-5.41,2.03-7.05,1.35-1.64,3.26-2.46,5.72-2.46s4.33.86,5.76,2.54c1.43,1.72,2.14,4.02,2.14,6.97M644.72,530.35c0,1.6.14,2.75.4,3.44.26.74.66,1.07,1.19,1.07.6,0,1-.41,1.23-1.19.23-.82.35-1.93.35-3.32s-.12-2.46-.35-3.28c-.23-.82-.63-1.19-1.23-1.19-.54,0-.94.33-1.2,1.07-.25.7-.39,1.85-.39,3.4"/>
  <rect class="cls-11" x="721.82" y="170.69" width="238.56" height="391.97"/>
  <rect class="cls-1" x="754.92" y="298.31" width="171.77" height="54.75"/>
  <rect class="cls-1" x="754.92" y="206.49" width="171.77" height="67.17"/>
  <rect class="cls-1" x="754.92" y="373.65" width="171.77" height="27.35"/>
  <rect class="cls-1" x="754.92" y="426.51" width="171.77" height="92.27"/>
</svg>