<?xml version="1.0" encoding="UTF-8"?>
<svg id="Capa_1" data-name="Capa 1" xmlns="http://www.w3.org/2000/svg" viewBox="0 0 32.55 30.8">
  <defs>
    <style>
      .cls-1 {
        fill: #4aaa00;
      }
    </style>
  </defs>
  <path class="cls-1" d="M23.63,15.41v10.89H5.16v-3.88L.65,17.93v10.62c0,1.25,1.01,2.25,2.25,2.25h22.98c1.25,0,2.25-1,2.25-2.25V10.91l-4.5,4.5ZM5.16,9.6v-1.78h13.06l4.51-4.5H2.9c-1.24,0-2.25,1.01-2.25,2.25v3.82c.63-.32,1.33-.49,2.07-.49.87,0,1.71.24,2.43.7"/>
  <path class="cls-1" d="M10.89,24.38c-.7,0-1.39-.27-1.92-.8L.8,15.42c-1.06-1.07-1.06-2.79,0-3.85,1.06-1.06,2.79-1.06,3.85,0l6.24,6.24L27.9.8c1.06-1.07,2.79-1.07,3.85,0,1.07,1.06,1.07,2.78,0,3.84L12.81,23.58c-.53.53-1.23.8-1.92.8"/>
</svg>