<?xml version="1.0" encoding="UTF-8"?>
<svg id="Capa_1" data-name="Capa 1" xmlns="http://www.w3.org/2000/svg" viewBox="0 0 488.86 255.93">
  <defs>
    <style>
      .cls-1 {
        fill: #273e5b;
      }
    </style>
  </defs>
  <path class="cls-1" d="M305.31,89.17c.37,32.91-27.36,60.53-60.83,60.33-32.84-.41-59.94-27.82-59.86-60.73.08-30.87,24.74-60.12,60.45-60.12s60.85,30.06,60.25,60.53"/>
  <path class="cls-1" d="M187.05,152.75c-9.12,3.65-17.65,8.73-25.21,15.23-12.27,10.97-21.02,24.78-25.31,40.22-1.73,6.3-2.52,12.59-2.82,19.09H16.35c-2.03,0-4.04-.2-6.01-.61-5.38-1.42-9.95-6.09-10.14-11.58-.37-11.17-.57-22.34,2.48-33.31,7.8-28.23,32.21-49.56,61.18-53.62,4-.41,8-.81,12.04-.81h54.74c22.49,0,42.68,9.75,56.41,25.39"/>
  <path class="cls-1" d="M163,60.53c.39,32.9-27.34,60.53-60.81,60.12-32.86-.2-59.94-27.62-59.86-60.53C42.39,29.25,67.07-.2,102.78,0,139.01,0,163.61,29.86,163,60.53"/>
  <path class="cls-1" d="M488.56,215.1c-.3,6.91-6.28,11.58-14,11.99-.93.2-1.87.2-2.8.2h-115.35c-.16-3.86-.55-7.72-1.26-11.58-3.64-19.3-13.81-36.76-28.66-49.15-7.29-6.09-15.58-10.77-24.46-14.01,11.54-13,27.5-21.94,45.15-24.37,4-.41,8-.81,12.04-.81h54.74c36.5,0,66.91,25.39,73.63,61.34,1.65,8.73,1.32,17.67.95,26.4"/>
  <path class="cls-1" d="M446.33,60.53c.39,32.9-27.34,60.53-60.81,60.12-32.86-.2-59.94-27.62-59.86-60.53C325.72,29.25,350.4-.2,386.11,0c36.24,0,60.83,29.86,60.22,60.53"/>
  <path class="cls-1" d="M245.04,255.93h-86.41c-2.03,0-4.04-.2-6.01-.6-5.38-1.22-9.95-6.09-10.14-11.38-.37-11.17-.55-22.35,2.48-33.31,7.8-28.23,32.21-49.76,61.18-53.62,4-.61,8.02-1.02,12.07-1.02,18.24.2,36.48,0,54.72.2,36.5,0,66.91,25.19,73.63,61.14,1.65,8.73,1.32,17.67.95,26.41-.3,6.9-6.28,11.58-14,12.18h-88.48"/>
</svg>