<svg width="300" height="250" viewBox="0 0 300 250" xmlns="http://www.w3.org/2000/svg">
  <!-- Background -->
  <rect width="300" height="250" fill="#f5f5f5" rx="10" />
  
  <!-- Family silhouettes -->
  <!-- Father -->
  <path d="M120,180 C120,140 100,140 100,120 C100,100 110,90 120,90 C130,90 140,100 140,120 C140,140 120,140 120,180 Z" fill="#2D4356" />
  <circle cx="120" cy="80" r="20" fill="#2D4356" />
  
  <!-- Mother -->
  <path d="M180,180 C180,140 160,140 160,120 C160,100 170,90 180,90 C190,90 200,100 200,120 C200,140 180,140 180,180 Z" fill="#2D4356" />
  <circle cx="180" cy="80" r="20" fill="#2D4356" />
  
  <!-- Child 1 -->
  <path d="M90,190 C90,170 80,170 80,160 C80,150 85,145 90,145 C95,145 100,150 100,160 C100,170 90,170 90,190 Z" fill="#2D4356" />
  <circle cx="90" cy="140" r="12" fill="#2D4356" />
  
  <!-- Child 2 -->
  <path d="M150,190 C150,170 140,170 140,160 C140,150 145,145 150,145 C155,145 160,150 160,160 C160,170 150,170 150,190 Z" fill="#2D4356" />
  <circle cx="150" cy="140" r="12" fill="#2D4356" />
  
  <!-- Child 3 -->
  <path d="M210,190 C210,170 200,170 200,160 C200,150 205,145 210,145 C215,145 220,150 220,160 C220,170 210,170 210,190 Z" fill="#2D4356" />
  <circle cx="210" cy="140" r="12" fill="#2D4356" />
  
  <!-- Warm overlay -->
  <rect width="300" height="250" fill="#FFB74D" opacity="0.1" rx="10" />
</svg>