<?xml version="1.0" encoding="UTF-8"?>
<svg id="Capa_1" data-name="Capa 1" xmlns="http://www.w3.org/2000/svg" viewBox="0 0 258.38 285.9">
  <defs>
    <style>
      .cls-1 {
        fill: #273e5b;
      }
    </style>
  </defs>
  <path class="cls-1" d="M204.92,76.18c.48,41.26-34.37,76.18-76.45,75.73-41.31-.23-75.36-34.69-75.27-76.18C53.29,36.96,84.33,0,129.22,0c45.55.23,76.47,37.87,75.7,76.18"/>
  <path class="cls-1" d="M129.17,285.9H20.55c-2.56,0-5.1-.23-7.55-.91-6.78-1.59-12.52-7.48-12.74-14.28-.48-14.06-.7-28.11,3.11-41.95,9.79-35.37,40.49-62.58,76.9-67.34,5.06-.68,10.09-1.13,15.17-1.13h68.81c45.89,0,84.09,31.97,92.57,77.08,2.06,10.89,1.66,22.22,1.18,33.33-.36,8.39-7.89,14.51-17.57,14.96-1.18.23-2.36.23-3.51.23h-107.74"/>
</svg>