<?xml version="1.0" encoding="UTF-8" standalone="no"?><!DOCTYPE svg PUBLIC "-//W3C//DTD SVG 1.1//EN" "http://www.w3.org/Graphics/SVG/1.1/DTD/svg11.dtd"><svg width="100%" height="100%" viewBox="0 0 169 169" version="1.1" xmlns="http://www.w3.org/2000/svg" xmlns:xlink="http://www.w3.org/1999/xlink" xml:space="preserve" xmlns:serif="http://www.serif.com/" style="fill-rule:evenodd;clip-rule:evenodd;stroke-linejoin:round;stroke-miterlimit:2;"><g><path d="M165.517,84.221c-0,44.911 -36.409,81.32 -81.32,81.32c-44.895,-0 -81.304,-36.409 -81.304,-81.32c-0,-44.91 36.409,-81.319 81.304,-81.319c44.911,-0 81.32,36.409 81.32,81.319" style="fill:#8dc63f;fill-rule:nonzero;"/><path d="M84.203,5.798c-43.228,-0 -78.42,35.177 -78.42,78.42c-0,43.244 35.192,78.421 78.42,78.421c43.229,-0 78.421,-35.177 78.421,-78.421c-0,-43.243 -35.192,-78.42 -78.421,-78.42m0,162.639c-46.427,-0 -84.203,-37.776 -84.203,-84.219c0,-46.442 37.776,-84.218 84.203,-84.218c46.428,0 84.204,37.776 84.204,84.218c-0,46.443 -37.776,84.219 -84.204,84.219" style="fill:#231f20;fill-rule:nonzero;"/><path d="M146.506,84.221c-0,34.412 -27.893,62.289 -62.304,62.289c-34.396,0 -62.289,-27.877 -62.289,-62.289c-0,-34.411 27.893,-62.304 62.289,-62.304c34.411,0 62.304,27.893 62.304,62.304" style="fill:#f1f2f2;fill-rule:nonzero;"/><path d="M84.203,24.815c-32.759,-0 -59.405,26.646 -59.405,59.405c0,32.759 26.646,59.405 59.405,59.405c32.759,-0 59.405,-26.646 59.405,-59.405c0,-32.759 -26.646,-59.405 -59.405,-59.405m0,124.593c-35.958,-0 -65.187,-29.23 -65.187,-65.188c-0,-35.944 29.229,-65.203 65.187,-65.203c35.959,0 65.203,29.259 65.203,65.203c0,35.958 -29.244,65.188 -65.203,65.188" style="fill:#231f20;fill-rule:nonzero;"/><path d="M126.521,103.305l-42.312,-19.091l0,-30.686l42.312,49.777Z" style="fill:#f1f2f2;fill-rule:nonzero;"/><path d="M126.521,106.202c-0.405,-0 -0.811,-0.075 -1.186,-0.255l-42.312,-19.091c-1.052,-0.466 -1.713,-1.502 -1.713,-2.629l0,-30.701c0,-1.607 1.292,-2.899 2.899,-2.899c1.592,0 2.884,1.292 2.884,2.899l0,28.824l40.615,18.309c1.457,0.661 2.118,2.374 1.457,3.831c-0.481,1.081 -1.547,1.712 -2.644,1.712" style="fill:#231f20;fill-rule:nonzero;"/></g></svg>