<?xml version="1.0" encoding="UTF-8" standalone="no"?><!DOCTYPE svg PUBLIC "-//W3C//DTD SVG 1.1//EN" "http://www.w3.org/Graphics/SVG/1.1/DTD/svg11.dtd"><svg width="100%" height="100%" viewBox="0 0 180 157" version="1.1" xmlns="http://www.w3.org/2000/svg" xmlns:xlink="http://www.w3.org/1999/xlink" xml:space="preserve" xmlns:serif="http://www.serif.com/" style="fill-rule:evenodd;clip-rule:evenodd;stroke-linejoin:round;stroke-miterlimit:2;"><g><path d="M8.351,144.432l55.8,-0l0,-92.795l-55.8,-0c-3.019,-0 -5.452,2.433 -5.452,5.452l-0,81.89c-0,3.004 2.433,5.453 5.452,5.453" style="fill:#8dc63f;fill-rule:nonzero;"/><path d="M8.351,54.53c-1.412,-0 -2.553,1.141 -2.553,2.553l-0,81.89c-0,1.412 1.141,2.554 2.553,2.554l52.901,-0l0,-86.997l-52.901,-0Zm55.8,92.795l-55.8,-0c-4.611,-0 -8.351,-3.74 -8.351,-8.352l0,-81.89c0,-4.611 3.74,-8.351 8.351,-8.351l55.8,-0c1.607,-0 2.899,1.307 2.899,2.899l0,92.795c0,1.607 -1.292,2.899 -2.899,2.899" style="fill:#231f20;fill-rule:nonzero;"/><path d="M52.415,153.415l-14.39,0c-6.489,0 -11.746,-5.257 -11.746,-11.746l0,-87.627c0,-6.489 5.257,-11.746 11.746,-11.746l14.39,-0c6.488,-0 11.745,5.257 11.745,11.746l0,87.627c0,6.489 -5.257,11.746 -11.745,11.746" style="fill:#f1f2f2;fill-rule:nonzero;"/><path d="M38.025,45.195c-4.881,-0 -8.847,3.965 -8.847,8.847l0,87.627c0,4.882 3.966,8.847 8.847,8.847l14.39,0c4.881,0 8.846,-3.965 8.846,-8.847l0,-87.627c0,-4.882 -3.965,-8.847 -8.846,-8.847l-14.39,-0Zm14.39,111.104l-14.39,0c-8.081,0 -14.645,-6.564 -14.645,-14.63l0,-87.627c0,-8.081 6.564,-14.645 14.645,-14.645l14.39,-0c8.08,-0 14.644,6.564 14.644,14.645l0,87.627c0,8.066 -6.564,14.63 -14.644,14.63" style="fill:#231f20;fill-rule:nonzero;"/><path d="M110.31,59.576c-0,0 27.217,-72.037 -5.948,-53.697c-0,30.777 -40.209,53.697 -40.209,53.697l-0,78.857l90.452,-0c5.197,-0 9.673,-3.695 10.649,-8.802l10.875,-57.182c0.615,-3.169 -0.226,-6.444 -2.299,-8.937c-2.057,-2.494 -5.121,-3.936 -8.351,-3.936l-55.169,0Z" style="fill:#f1f2f2;fill-rule:nonzero;"/><path d="M67.053,135.543l87.553,-0c3.8,-0 7.075,-2.719 7.796,-6.459l10.889,-57.182c0.451,-2.328 -0.165,-4.716 -1.697,-6.549c-1.502,-1.817 -3.74,-2.884 -6.113,-2.884l-55.17,0c-0.961,0 -1.847,-0.465 -2.388,-1.246c-0.54,-0.781 -0.661,-1.773 -0.33,-2.674c6.984,-18.475 14.119,-46.848 8.141,-52.015c-1.863,-1.607 -5.693,-0.255 -8.502,1.127c-1.291,28.132 -32.834,49.056 -40.179,53.562l0,74.32Zm87.553,5.797l-90.452,0c-1.592,0 -2.899,-1.306 -2.899,-2.898l0,-78.872c0,-1.036 0.556,-1.997 1.457,-2.508c0.391,-0.225 38.768,-22.47 38.768,-51.174c-0,-1.066 0.57,-2.028 1.487,-2.538c7.254,-4.011 12.827,-4.431 16.552,-1.202c9.913,8.562 -0.451,41.531 -5.062,54.539l51.024,-0c4.115,-0 7.96,1.802 10.589,4.971c2.628,3.17 3.68,7.3 2.914,11.341l-10.89,57.166c-1.231,6.474 -6.909,11.175 -13.488,11.175" style="fill:#231f20;fill-rule:nonzero;"/><path d="M53.654,129.999c-0,4.671 -3.77,8.441 -8.442,8.441c-4.656,0 -8.441,-3.77 -8.441,-8.441c-0,-4.657 3.785,-8.442 8.441,-8.442c4.672,0 8.442,3.785 8.442,8.442" style="fill:#f1f2f2;fill-rule:nonzero;"/><path d="M45.22,124.453c-3.064,0 -5.543,2.494 -5.543,5.543c0,3.064 2.479,5.542 5.543,5.542c3.049,0 5.542,-2.478 5.542,-5.542c0,-3.049 -2.493,-5.543 -5.542,-5.543m-0,16.883c-6.264,-0 -11.34,-5.077 -11.34,-11.34c-0,-6.249 5.076,-11.341 11.34,-11.341c6.248,0 11.325,5.092 11.325,11.341c0,6.263 -5.077,11.34 -11.325,11.34" style="fill:#231f20;fill-rule:nonzero;"/></g></svg>