<?xml version="1.0" encoding="UTF-8" standalone="no"?><!DOCTYPE svg PUBLIC "-//W3C//DTD SVG 1.1//EN" "http://www.w3.org/Graphics/SVG/1.1/DTD/svg11.dtd"><svg width="100%" height="100%" viewBox="0 0 196 139" version="1.1" xmlns="http://www.w3.org/2000/svg" xmlns:xlink="http://www.w3.org/1999/xlink" xml:space="preserve" xmlns:serif="http://www.serif.com/" style="fill-rule:evenodd;clip-rule:evenodd;stroke-linejoin:round;stroke-miterlimit:2;"><g><path d="M63.693,35.449c0,16.583 -13.458,30.041 -30.04,30.041c-16.598,-0 -30.056,-13.458 -30.056,-30.041c0,-16.597 13.458,-30.04 30.056,-30.04c16.582,-0 30.04,13.443 30.04,30.04" style="fill:#f1f2f2;fill-rule:nonzero;"/><path d="M33.645,8.299c-14.975,-0 -27.141,12.181 -27.141,27.156c-0,14.96 12.166,27.142 27.141,27.142c14.975,-0 27.157,-12.182 27.157,-27.142c-0,-14.975 -12.182,-27.156 -27.157,-27.156m0,60.081c-18.159,-0 -32.939,-14.765 -32.939,-32.925c-0,-18.174 14.78,-32.954 32.939,-32.954c18.16,-0 32.94,14.78 32.94,32.954c-0,18.16 -14.78,32.925 -32.94,32.925" style="fill:#231f20;fill-rule:nonzero;"/><path d="M64.396,105.651l-61.493,-0l0,-9.058c0,-16.972 13.759,-30.746 30.747,-30.746c16.973,0 30.746,13.774 30.746,30.746l0,9.058Z" style="fill:#f1f2f2;fill-rule:nonzero;"/><path d="M5.798,102.753l55.695,0l-0,-6.158c-0,-15.366 -12.497,-27.847 -27.848,-27.847c-15.35,-0 -27.847,12.481 -27.847,27.847l-0,6.158Zm58.594,5.798l-61.493,0c-1.592,0 -2.899,-1.307 -2.899,-2.899l-0,-9.057c-0,-18.55 15.095,-33.645 33.645,-33.645c18.55,-0 33.646,15.095 33.646,33.645l-0,9.057c-0,1.592 -1.292,2.899 -2.899,2.899" style="fill:#231f20;fill-rule:nonzero;"/><path d="M191.996,35.449c-0,16.583 -13.458,30.041 -30.041,30.041c-16.597,-0 -30.055,-13.458 -30.055,-30.041c0,-16.597 13.458,-30.04 30.055,-30.04c16.583,-0 30.041,13.443 30.041,30.04" style="fill:#f1f2f2;fill-rule:nonzero;"/><path d="M161.948,8.299c-14.975,-0 -27.157,12.181 -27.157,27.156c0,14.96 12.182,27.142 27.157,27.142c14.975,-0 27.157,-12.182 27.157,-27.142c-0,-14.975 -12.182,-27.156 -27.157,-27.156m-0,60.081c-18.159,-0 -32.939,-14.765 -32.939,-32.925c-0,-18.174 14.78,-32.954 32.939,-32.954c18.159,-0 32.939,14.78 32.939,32.954c0,18.16 -14.78,32.925 -32.939,32.925" style="fill:#231f20;fill-rule:nonzero;"/><path d="M192.699,105.651l-61.493,-0l0,-9.058c0,-16.972 13.759,-30.746 30.746,-30.746c16.973,0 30.747,13.774 30.747,30.746l-0,9.058Z" style="fill:#f1f2f2;fill-rule:nonzero;"/><path d="M134.1,102.753l55.695,0l0,-6.158c0,-15.366 -12.496,-27.847 -27.847,-27.847c-15.351,-0 -27.848,12.481 -27.848,27.847l0,6.158Zm58.594,5.798l-61.492,0c-1.593,0 -2.899,-1.307 -2.899,-2.899l-0,-9.057c-0,-18.55 15.095,-33.645 33.645,-33.645c18.55,-0 33.645,15.095 33.645,33.645l0,9.057c0,1.592 -1.292,2.899 -2.899,2.899" style="fill:#231f20;fill-rule:nonzero;"/><path d="M137.591,42.695c0,21.975 -17.814,39.804 -39.788,39.804c-21.99,-0 -39.804,-17.829 -39.804,-39.804c0,-21.975 17.814,-39.789 39.804,-39.789c21.974,0 39.788,17.814 39.788,39.789" style="fill:#f1f2f2;fill-rule:nonzero;"/><path d="M97.797,5.798c-20.353,-0 -36.905,16.552 -36.905,36.904c-0,20.353 16.552,36.905 36.905,36.905c20.337,0 36.904,-16.552 36.904,-36.905c0,-20.352 -16.567,-36.904 -36.904,-36.904m-0,79.592c-23.537,-0 -42.703,-19.151 -42.703,-42.688c0,-23.551 19.166,-42.702 42.703,-42.702c23.536,0 42.687,19.151 42.687,42.702c0,23.537 -19.151,42.688 -42.687,42.688" style="fill:#231f20;fill-rule:nonzero;"/><path d="M138.522,135.691l-81.454,0l-0,-12.001c-0,-22.485 18.234,-40.72 40.735,-40.72c22.485,0 40.719,18.235 40.719,40.72l0,12.001Z" style="fill:#8dc63f;fill-rule:nonzero;"/><path d="M59.959,132.794l75.672,-0l0,-9.103c0,-20.863 -16.973,-37.835 -37.836,-37.835c-20.863,-0 -37.836,16.972 -37.836,37.835l0,9.103Zm78.556,5.798l-81.455,-0c-1.592,-0 -2.899,-1.307 -2.899,-2.899l0,-12.002c0,-24.062 19.572,-43.618 43.634,-43.618c24.062,-0 43.619,19.556 43.619,43.618l-0,12.002c-0,1.592 -1.292,2.899 -2.899,2.899" style="fill:#231f20;fill-rule:nonzero;"/></g></svg>