<?xml version="1.0" encoding="UTF-8" standalone="no"?><!DOCTYPE svg PUBLIC "-//W3C//DTD SVG 1.1//EN" "http://www.w3.org/Graphics/SVG/1.1/DTD/svg11.dtd"><svg width="100%" height="100%" viewBox="0 0 1203 985" version="1.1" xmlns="http://www.w3.org/2000/svg" xmlns:xlink="http://www.w3.org/1999/xlink" xml:space="preserve" xmlns:serif="http://www.serif.com/" style="fill-rule:evenodd;clip-rule:evenodd;stroke-linejoin:round;stroke-miterlimit:2;"><g><rect x="58.626" y="124.427" width="581.791" height="401.856" style="fill:#fff;"/><rect x="112.01" y="171.722" width="475.023" height="307.251" style="fill:#ffbd1a;"/><path d="M58.63,526.279l-58.63,95.713l699.052,0l-58.631,-95.713l-581.791,-0Z" style="fill:#cecece;fill-rule:nonzero;"/><rect x="0.011" y="621.981" width="699.036" height="50.933" style="fill:#fff;"/><path d="M535.382,810.609l-0,-46.436l-39.191,-27.325c-4.013,-2.779 -7.198,-6.589 -9.275,-11.007l-19.471,-41.612c-3.997,-8.572 -0.062,-18.752 8.651,-22.39c7.931,-3.326 17.066,-0.062 21.11,7.51c6.058,11.383 13.802,25.888 13.802,25.888l10.571,0c6.886,0 12.46,-5.574 12.46,-12.46l-0,-92.965c-0,-6.121 4.965,-11.102 11.101,-11.102l13.569,0l-0,-2.092c-0,-7.588 6.136,-13.709 13.709,-13.709l5.48,0c7.573,0 13.694,6.121 13.694,13.709l13.459,0c5.403,0 9.759,4.356 9.759,9.743l-0,4.481l5.73,0c8.369,0 15.146,6.777 15.146,15.162l-0,115.355c-0,7.089 -2.467,13.975 -6.995,19.424l-19.877,23.952l0,41.127l-73.432,4.747Z" style="fill:#ffd364;fill-rule:nonzero;"/><path d="M570.238,563.073c-6.526,1.046 -11.523,6.714 -11.523,13.537l0,2.108l-13.568,0c-6.137,0 -11.117,4.965 -11.117,11.102l-0,92.965c-0,6.87 -5.575,12.46 -12.445,12.46l-10.57,0c-0,0 -7.745,-14.521 -13.803,-25.888c-4.044,-7.588 -13.178,-10.852 -21.11,-7.526c-8.728,3.654 -12.647,13.834 -8.65,22.406l19.47,41.611c2.061,4.419 5.262,8.213 9.259,11.008l39.207,27.325l-0,46.435l34.85,-2.264l0,-245.279Z" style="fill:#ffc200;fill-rule:nonzero;"/><rect x="521.079" y="823.12" width="49.153" height="161.058" style="fill:#668e19;"/><rect x="569.623" y="823.12" width="49.153" height="161.058" style="fill:#8dc63f;"/><rect x="511.071" y="795.811" width="58.552" height="59.926" style="fill:#bc1e1b;"/><rect x="569.623" y="795.811" width="58.552" height="59.926" style="fill:#ef4136;"/><path d="M173.265,810.609l-0,-46.436l39.206,-27.325c3.998,-2.779 7.198,-6.589 9.259,-11.007l19.471,-41.612c3.997,-8.572 0.062,-18.752 -8.65,-22.39c-7.916,-3.326 -17.066,-0.062 -21.11,7.51c-6.058,11.383 -13.787,25.888 -13.787,25.888l-10.587,0c-6.87,0 -12.459,-5.574 -12.459,-12.46l-0,-92.965c-0,-6.121 -4.966,-11.102 -11.102,-11.102l-13.568,0l-0,-2.092c-0,-7.588 -6.137,-13.709 -13.709,-13.709l-5.465,0c-7.573,0 -13.709,6.121 -13.709,13.709l-13.46,0c-5.386,0 -9.758,4.356 -9.758,9.743l-0,4.481l-5.731,0c-8.369,0 -15.145,6.777 -15.145,15.162l-0,115.355c-0,7.089 2.482,13.975 7.01,19.424l19.861,23.952l0,41.127l73.433,4.747Z" style="fill:#ffc200;fill-rule:nonzero;"/><path d="M138.408,563.073c6.542,1.046 11.523,6.714 11.523,13.537l0,2.108l13.584,0c6.121,0 11.102,4.965 11.102,11.102l-0,92.965c-0,6.87 5.574,12.46 12.46,12.46l10.57,0c0,0 7.729,-14.521 13.803,-25.888c4.029,-7.588 13.178,-10.852 21.095,-7.526c8.728,3.654 12.663,13.834 8.65,22.406l-19.471,41.611c-2.061,4.419 -5.246,8.213 -9.259,11.008l-39.206,27.325l-0,46.435l-34.851,-2.264l0,-245.279Z" style="fill:#ffd364;fill-rule:nonzero;"/><rect x="138.413" y="823.12" width="49.153" height="161.058" style="fill:#8dc63f;"/><rect x="89.869" y="823.12" width="49.153" height="161.058" style="fill:#668e19;"/><rect x="139.037" y="795.811" width="58.552" height="59.926" style="fill:#ef4136;"/><rect x="80.47" y="795.811" width="58.552" height="59.926" style="fill:#bc1e1b;"/><path d="M784.237,53.618l-6.277,0l-0,-7.245l6.277,0l-0,7.245Zm23.67,0l-6.276,0l-0,-7.245l6.276,0l0,7.245Zm23.687,0l-6.277,0l-0,-7.245l6.277,0l-0,7.245Zm-62.097,7.979l-7.245,-0l0,-6.277l7.245,0l0,6.277Zm0,23.671l-7.245,-0l0,-6.277l7.245,-0l0,6.277Zm0,23.67l-7.245,0l0,-6.276l7.245,-0l0,6.276Zm0,23.687l-7.245,-0l0,-6.277l7.245,0l0,6.277Zm0,23.671l-7.245,-0l0,-6.277l7.245,-0l0,6.277Zm0,23.686l-7.245,-0l0,-6.277l7.245,0l0,6.277Zm0,23.671l-7.245,-0l0,-6.277l7.245,-0l0,6.277Zm-512.371,9.493l-6.277,-0l-0,-7.245l6.277,0l-0,7.245Zm23.67,-0l-6.276,-0l-0,-7.245l6.276,0l0,7.245Zm23.671,-0l-6.277,-0l0,-7.245l6.277,0l0,7.245Zm23.686,-0l-6.276,-0l-0,-7.245l6.276,0l0,7.245Zm23.671,-0l-6.277,-0l0,-7.245l6.277,0l0,7.245Zm23.687,-0l-6.277,-0l-0,-7.245l6.277,0l-0,7.245Zm23.67,-0l-6.276,-0l-0,-7.245l6.276,0l0,7.245Zm23.671,-0l-6.277,-0l0,-7.245l6.277,0l0,7.245Zm23.686,-0l-6.276,-0l-0,-7.245l6.276,0l0,7.245Zm23.671,-0l-6.277,-0l0,-7.245l6.277,0l0,7.245Zm23.686,-0l-6.276,-0l-0,-7.245l6.276,0l0,7.245Zm23.671,-0l-6.277,-0l0,-7.245l6.277,0l0,7.245Zm23.671,-0l-6.277,-0l0,-7.245l6.277,0l-0,7.245Zm23.686,-0l-6.277,-0l0,-7.245l6.277,0l0,7.245Zm23.671,-0l-6.277,-0l0,-7.245l6.277,0l0,7.245Zm23.686,-0l-6.276,-0l-0,-7.245l6.276,0l0,7.245Zm23.671,-0l-6.277,-0l0,-7.245l6.277,0l0,7.245Zm23.686,-0l-6.276,-0l-0,-7.245l6.276,0l0,7.245Zm23.671,-0l-6.277,-0l0,-7.245l6.277,0l0,7.245Zm23.687,-0l-6.277,-0l-0,-7.245l6.277,0l-0,7.245Zm23.67,-0l-6.277,-0l0,-7.245l6.277,0l0,7.245Zm23.671,-0l-6.277,-0l0,-7.245l6.277,0l-0,7.245Z" style="fill:#231f20;fill-rule:nonzero;"/><path d="M257.126,275.164l-6.277,0l-0,-7.244l6.277,-0l-0,7.244Zm23.67,0l-6.276,0l-0,-7.244l6.276,-0l0,7.244Zm23.671,0l-6.277,0l0,-7.244l6.277,-0l0,7.244Zm23.686,0l-6.276,0l-0,-7.244l6.276,-0l0,7.244Zm23.671,0l-6.277,0l0,-7.244l6.277,-0l0,7.244Zm23.687,0l-6.277,0l-0,-7.244l6.277,-0l-0,7.244Zm23.67,0l-6.276,0l-0,-7.244l6.276,-0l0,7.244Zm23.671,0l-6.277,0l0,-7.244l6.277,-0l0,7.244Zm23.686,0l-6.276,0l-0,-7.244l6.276,-0l0,7.244Zm23.671,0l-6.277,0l0,-7.244l6.277,-0l0,7.244Zm23.686,0l-6.276,0l-0,-7.244l6.276,-0l0,7.244Zm23.671,0l-6.277,0l0,-7.244l6.277,-0l0,7.244Zm23.671,0l-6.277,0l0,-7.244l6.277,-0l-0,7.244Zm23.686,0l-6.277,0l0,-7.244l6.277,-0l0,7.244Zm23.671,0l-6.277,0l0,-7.244l6.277,-0l0,7.244Zm23.686,0l-6.276,0l-0,-7.244l6.276,-0l0,7.244Zm23.671,0l-6.277,0l0,-7.244l6.277,-0l0,7.244Zm23.686,0l-6.276,0l-0,-7.244l6.276,-0l0,7.244Zm23.671,0l-6.277,0l0,-7.244l6.277,-0l0,7.244Zm23.671,0l-6.277,0l0,-7.244l6.277,-0l-0,7.244Zm23.686,0l-6.277,0l0,-7.244l6.277,-0l0,7.244Zm23.671,0l-6.277,0l0,-7.244l6.277,-0l-0,7.244Zm23.686,0l-6.276,0l-0,-7.244l6.276,-0l0,7.244Zm23.671,0l-6.277,0l0,-7.244l6.277,-0l0,7.244Zm23.686,0l-6.276,0l-0,-7.244l6.276,-0l0,7.244Zm23.671,0l-6.277,0l0,-7.244l6.277,-0l0,7.244Zm23.671,0l-6.277,0l0,-7.244l6.277,-0l-0,7.244Zm23.686,0l-6.277,0l0,-7.244l6.277,-0l0,7.244Zm23.671,0l-6.277,0l0,-7.244l6.277,-0l-0,7.244Zm23.686,0l-6.276,0l-0,-7.244l6.276,-0l0,7.244Z" style="fill:#231f20;fill-rule:nonzero;"/><path d="M257.126,328.783l-6.277,-0l-0,-7.245l6.277,-0l-0,7.245Zm23.67,-0l-6.276,-0l-0,-7.245l6.276,-0l0,7.245Zm23.671,-0l-6.277,-0l0,-7.245l6.277,-0l0,7.245Zm23.686,-0l-6.276,-0l-0,-7.245l6.276,-0l0,7.245Zm23.671,-0l-6.277,-0l0,-7.245l6.277,-0l0,7.245Zm23.687,-0l-6.277,-0l-0,-7.245l6.277,-0l-0,7.245Zm23.67,-0l-6.276,-0l-0,-7.245l6.276,-0l0,7.245Zm23.671,-0l-6.277,-0l0,-7.245l6.277,-0l0,7.245Zm23.686,-0l-6.276,-0l-0,-7.245l6.276,-0l0,7.245Zm23.671,-0l-6.277,-0l0,-7.245l6.277,-0l0,7.245Zm23.686,-0l-6.276,-0l-0,-7.245l6.276,-0l0,7.245Zm23.671,-0l-6.277,-0l0,-7.245l6.277,-0l0,7.245Zm23.671,-0l-6.277,-0l0,-7.245l6.277,-0l-0,7.245Zm23.686,-0l-6.277,-0l0,-7.245l6.277,-0l0,7.245Zm23.671,-0l-6.277,-0l0,-7.245l6.277,-0l0,7.245Zm23.686,-0l-6.276,-0l-0,-7.245l6.276,-0l0,7.245Zm23.671,-0l-6.277,-0l0,-7.245l6.277,-0l0,7.245Zm23.686,-0l-6.276,-0l-0,-7.245l6.276,-0l0,7.245Zm23.671,-0l-6.277,-0l0,-7.245l6.277,-0l0,7.245Zm23.671,-0l-6.277,-0l0,-7.245l6.277,-0l-0,7.245Zm23.686,-0l-6.277,-0l0,-7.245l6.277,-0l0,7.245Zm23.671,-0l-6.277,-0l0,-7.245l6.277,-0l-0,7.245Zm23.686,-0l-6.276,-0l-0,-7.245l6.276,-0l0,7.245Zm23.671,-0l-6.277,-0l0,-7.245l6.277,-0l0,7.245Zm23.686,-0l-6.276,-0l-0,-7.245l6.276,-0l0,7.245Zm23.671,-0l-6.277,-0l0,-7.245l6.277,-0l0,7.245Zm21.188,2.482l-7.245,0l0,-6.105l3.545,0l-0.094,-3.622l3.794,-0l0,9.727Zm0,23.671l-7.245,0l0,-6.277l7.245,0l0,6.277Zm0,23.686l-7.245,0l0,-6.276l7.245,-0l0,6.276Zm0,23.671l-7.245,0l0,-6.277l7.245,0l0,6.277Zm0,23.671l-7.245,-0l0,-6.277l7.245,0l0,6.277Zm0,23.686l-7.245,0l0,-6.277l7.245,0l0,6.277Zm14.178,9.494l-6.277,-0l-0,-7.245l6.277,-0l-0,7.245Zm23.686,-0l-6.277,-0l0,-7.245l6.277,-0l0,7.245Zm23.686,-0l-6.276,-0l-0,-7.245l6.276,-0l0,7.245Zm23.671,-0l-6.277,-0l0,-7.245l6.277,-0l0,7.245Zm23.671,-0l-6.277,-0l0,-7.245l6.277,-0l-0,7.245Zm23.686,-0l-6.277,-0l0,-7.245l6.277,-0l0,7.245Zm23.671,-0l-6.277,-0l0,-7.245l6.277,-0l-0,7.245Z" style="fill:#231f20;fill-rule:nonzero;"/><path d="M257.126,389.209l-6.277,-0l-0,-7.245l6.277,-0l-0,7.245Zm23.67,-0l-6.276,-0l-0,-7.245l6.276,-0l0,7.245Zm23.671,-0l-6.277,-0l0,-7.245l6.277,-0l0,7.245Zm23.686,-0l-6.276,-0l-0,-7.245l6.276,-0l0,7.245Zm23.671,-0l-6.277,-0l0,-7.245l6.277,-0l0,7.245Zm23.687,-0l-6.277,-0l-0,-7.245l6.277,-0l-0,7.245Zm23.67,-0l-6.276,-0l-0,-7.245l6.276,-0l0,7.245Zm23.671,-0l-6.277,-0l0,-7.245l6.277,-0l0,7.245Zm23.686,-0l-6.276,-0l-0,-7.245l6.276,-0l0,7.245Zm23.671,-0l-6.277,-0l0,-7.245l6.277,-0l0,7.245Zm23.686,-0l-6.276,-0l-0,-7.245l6.276,-0l0,7.245Zm23.671,-0l-6.277,-0l0,-7.245l6.277,-0l0,7.245Zm23.671,-0l-6.277,-0l0,-7.245l6.277,-0l-0,7.245Zm23.686,-0l-6.277,-0l0,-7.245l6.277,-0l0,7.245Zm23.671,-0l-6.277,-0l0,-7.245l6.277,-0l0,7.245Zm23.686,-0l-6.276,-0l-0,-7.245l6.276,-0l0,7.245Zm23.671,-0l-6.277,-0l0,-7.245l6.277,-0l0,7.245Zm23.686,-0l-6.276,-0l-0,-7.245l6.276,-0l0,7.245Zm23.671,-0l-6.277,-0l0,-7.245l6.277,-0l0,7.245Zm23.687,-0l-6.277,-0l-0,-7.245l6.277,-0l-0,7.245Zm23.67,-0l-6.277,-0l0,-7.245l6.277,-0l0,7.245Zm23.671,-0l-6.277,-0l0,-7.245l6.277,-0l-0,7.245Zm23.686,-0l-6.276,-0l-0,-7.245l6.276,-0l0,7.245Zm23.671,-0l-6.277,-0l0,-7.245l6.277,-0l0,7.245Zm17.035,6.651l-7.245,0l0,-6.277l7.245,0l-0,6.277Zm-0,23.671l-7.245,-0l0,-6.277l7.245,0l-0,6.277Zm-0,23.686l-7.245,0l0,-6.276l7.245,-0l-0,6.276Zm-0,23.671l-7.245,0l0,-6.277l7.245,0l-0,6.277Zm-0,23.686l-7.245,0l0,-6.276l7.245,-0l-0,6.276Zm-0,23.671l-7.245,0l0,-6.277l7.245,0l-0,6.277Zm-0,23.686l-7.245,0l0,-6.276l7.245,-0l-0,6.276Zm-0,23.656l-7.245,-0l0,-6.277l7.245,-0l-0,6.277Zm-0,23.686l-7.245,-0l0,-6.277l7.245,0l-0,6.277Zm-0,23.686l-7.245,0l0,-6.277l7.245,0l-0,6.277Zm-0,23.671l-7.245,0l0,-6.277l7.245,0l-0,6.277Zm79.459,15.208l-6.277,-0l0,-7.26l6.277,-0l0,7.26Zm17.41,-0l-0.016,-7.26l6.277,-0.016l0.016,7.26l-6.277,0.016Zm-41.081,0.016l-6.276,-0l-0,-7.261l6.276,0l0,7.261Zm-23.67,0.015l-6.277,0l-0,-7.26l6.277,-0l-0,7.26Zm-23.687,0.016l-6.276,-0l-0,-7.261l6.276,0l0,7.261Z" style="fill:#231f20;fill-rule:nonzero;"/><path d="M961.898,271.539c0,10.243 -8.306,18.534 -18.533,18.534c-10.259,-0 -18.55,-8.291 -18.55,-18.534c0,-10.243 8.291,-18.549 18.55,-18.549c10.227,-0 18.533,8.306 18.533,18.549" style="fill:#ffc200;fill-rule:nonzero;"/><path d="M867.353,49.993c-0,10.242 -8.307,18.549 -18.55,18.549c-10.242,0 -18.549,-8.307 -18.549,-18.549c0,-10.243 8.307,-18.534 18.549,-18.534c10.243,-0 18.55,8.291 18.55,18.534" style="fill:#ffc200;fill-rule:nonzero;"/><path d="M1048.04,455.521c0,10.243 -8.307,18.534 -18.549,18.534c-10.243,-0 -18.534,-8.291 -18.534,-18.534c-0,-10.243 8.291,-18.549 18.534,-18.549c10.242,-0 18.549,8.306 18.549,18.549" style="fill:#ffc200;fill-rule:nonzero;"/><path d="M957.347,644.192c-0,10.243 -8.307,18.549 -18.534,18.549c-10.258,0 -18.549,-8.306 -18.549,-18.549c-0,-10.227 8.291,-18.534 18.549,-18.534c10.227,0 18.534,8.307 18.534,18.534" style="fill:#ffc200;fill-rule:nonzero;"/><path d="M907.962,82.52l103.317,-0l-0,-77.695l-103.317,-0l-0,77.695Zm108.142,4.84l-112.983,-0l0,-87.36l112.983,-0l-0,87.36Z" style="fill:#231f20;fill-rule:nonzero;"/><path d="M907.962,114.669l103.317,-0l-0,-27.325l-103.317,0l-0,27.325Zm108.142,4.84l-112.983,0l0,-36.989l112.983,-0l-0,36.989Z" style="fill:#231f20;fill-rule:nonzero;"/><rect x="950.931" y="94.105" width="35.615" height="4.84" style="fill:#231f20;"/><rect x="950.915" y="103.224" width="48.653" height="4.84" style="fill:#231f20;"/><path d="M975.087,31.253c0,9.415 -7.635,17.035 -17.034,17.035c-9.416,-0 -17.051,-7.62 -17.051,-17.035c0,-9.415 7.635,-17.035 17.051,-17.035c9.399,0 17.034,7.62 17.034,17.035" style="fill:#668e19;fill-rule:nonzero;"/><path d="M975.484,71.065l-34.866,0l0,-5.137c0,-9.618 7.807,-17.425 17.425,-17.425c9.634,0 17.441,7.807 17.441,17.425l0,5.137Z" style="fill:#668e19;fill-rule:nonzero;"/><path d="M924.701,96.691c-1.624,-0 -2.201,1.483 -2.201,2.748c-0,1.936 3.731,5.153 6.448,6.839c2.733,-1.686 6.464,-4.887 6.464,-6.839c0,-0.468 -0.109,-2.748 -2.217,-2.748c-0.515,-0 -1.795,0.656 -2.498,1.374l-1.733,1.796l-1.733,-1.78c-0.734,-0.75 -1.999,-1.39 -2.53,-1.39m4.247,15.083l-1.093,-0.562c-0.109,-0.047 -10.196,-5.418 -10.196,-11.773c0,-4.388 2.967,-7.588 7.042,-7.588c1.437,-0 2.983,0.64 4.247,1.452c1.281,-0.812 2.811,-1.452 4.247,-1.452c4.091,-0 7.042,3.2 7.042,7.588c0,6.37 -10.071,11.726 -10.18,11.773l-1.109,0.562Z" style="fill:#231f20;fill-rule:nonzero;"/><path d="M1004.39,691.537l-22.328,-65.298l50.527,-17.347l1.561,4.575l-45.967,15.77l19.205,56.163l29.573,-10.149l1.577,4.575l-34.148,11.711Z" style="fill:#231f20;fill-rule:nonzero;"/><path d="M1010.63,709.803l-7.807,-22.827l34.132,-11.726l1.577,4.575l-29.573,10.133l4.669,13.709l65.875,-22.484l-0.968,-2.888l4.591,-1.515l2.467,7.417l-74.963,25.606Z" style="fill:#231f20;fill-rule:nonzero;"/><path d="M1033.37,630.697l-0.936,-0.609l-7.027,22.953l-8.587,-4.685l-6.09,19.19l22.64,-7.807l0,-29.042Z" style="fill:#668e19;fill-rule:nonzero;"/><path d="M1035.81,655.817l69.607,-0l0,-59.333l-69.607,-0l0,59.333Zm74.432,4.809l-79.272,-0l0,-68.967l79.272,0l0,68.967Z" style="fill:#231f20;fill-rule:nonzero;"/><path d="M1090.36,679.948l-59.411,0l-0,-24.17l79.319,-0l-0,15.52l-4.841,-0l0,-10.696l-69.638,0l0,14.521l54.571,0l-0,4.825Z" style="fill:#231f20;fill-rule:nonzero;"/><path d="M1044.65,639.984l12.023,-16.223l6.651,7.339l14.115,-19.549l19.846,28.433l-52.635,0Z" style="fill:#668e19;fill-rule:nonzero;"/><path d="M1091.61,704.345l14.005,-0l0,-10.586c0,-3.357 2.733,-6.074 6.09,-6.074l7.307,-0l0,4.903l18.471,-11.93l-18.471,-11.897l0,4.902l-18.69,0c-4.809,0 -8.712,3.92 -8.712,8.729l-0,21.953Zm18.846,4.825l-23.687,-0l0,-26.778c0,-7.479 6.09,-13.538 13.553,-13.538l13.85,0l-0,-8.978l32.227,20.782l-32.227,20.798l-0,-8.962l-2.467,-0c-0.687,-0 -1.249,0.562 -1.249,1.265l-0,15.411Z" style="fill:#231f20;fill-rule:nonzero;"/><path d="M1093.33,312.571l-94.543,-0l0,-88.844l114.747,0l0,77.68l-4.825,-0l0,-72.839l-105.097,-0l-0,79.162l89.718,0l-0,4.841Z" style="fill:#231f20;fill-rule:nonzero;"/><path d="M1003.6,242.516l105.051,-0l-0,-13.912l-105.051,-0l-0,13.912Zm109.875,4.824l-114.715,0l-0,-23.577l114.715,0l0,23.577Z" style="fill:#231f20;fill-rule:nonzero;"/><path d="M1042.22,257.686l32.743,18.909l-32.743,18.893l0,-37.802Z" style="fill:#668e19;fill-rule:nonzero;"/><path d="M1015.42,235.561c0,1.468 -1.202,2.655 -2.67,2.655c-1.467,-0 -2.67,-1.187 -2.67,-2.655c0,-1.483 1.203,-2.67 2.67,-2.67c1.468,0 2.67,1.187 2.67,2.67" style="fill:#231f20;fill-rule:nonzero;"/><path d="M1024.05,235.561c-0,1.468 -1.187,2.655 -2.655,2.655c-1.483,-0 -2.67,-1.187 -2.67,-2.655c0,-1.483 1.187,-2.67 2.67,-2.67c1.468,0 2.655,1.187 2.655,2.67" style="fill:#231f20;fill-rule:nonzero;"/><path d="M1032.69,235.561c0,1.468 -1.186,2.655 -2.654,2.655c-1.483,-0 -2.67,-1.187 -2.67,-2.655c-0,-1.483 1.187,-2.67 2.67,-2.67c1.468,0 2.654,1.187 2.654,2.67" style="fill:#231f20;fill-rule:nonzero;"/><path d="M1103.07,315.149c0.765,-0 1.546,0.249 2.201,0.718l6.699,4.871l-2.561,-7.869c-0.5,-1.577 0.047,-3.248 1.374,-4.2l6.698,-4.872l-8.291,0c-1.608,0 -3.044,-1.03 -3.56,-2.576l-2.56,-7.885l-2.577,7.869c-0.484,1.546 -1.92,2.592 -3.559,2.592l-8.276,0l6.698,4.872c1.312,0.968 1.859,2.639 1.375,4.184l-2.577,7.885l6.699,-4.871c0.655,-0.469 1.436,-0.718 2.217,-0.718m-10.961,12.163c-0.765,-0 -1.546,-0.234 -2.202,-0.718c-1.327,-0.953 -1.873,-2.639 -1.374,-4.185l3.357,-10.289l-8.759,-6.371c-1.312,-0.952 -1.874,-2.639 -1.359,-4.184c0.5,-1.562 1.936,-2.608 3.56,-2.608l10.821,-0l3.341,-10.274c0.999,-3.107 6.136,-3.107 7.151,0l3.326,10.274l10.821,-0c1.639,-0 3.06,1.046 3.575,2.592c0.5,1.561 -0.047,3.248 -1.358,4.2l-8.76,6.371l3.342,10.274c0.499,1.545 -0.047,3.232 -1.359,4.2c-1.311,0.968 -3.076,0.952 -4.418,-0l-8.744,-6.355l-8.76,6.355c-0.655,0.484 -1.421,0.718 -2.201,0.718" style="fill:#231f20;fill-rule:nonzero;"/><path d="M257.126,448.791l-6.277,0l-0,-7.244l6.277,-0l-0,7.244Zm23.67,0l-6.276,0l-0,-7.244l6.276,-0l0,7.244Zm23.671,0l-6.277,0l0,-7.244l6.277,-0l0,7.244Zm23.686,0l-6.276,0l-0,-7.244l6.276,-0l0,7.244Zm23.671,0l-6.277,0l0,-7.244l6.277,-0l0,7.244Zm23.687,0l-6.277,0l-0,-7.244l6.277,-0l-0,7.244Zm23.67,0l-6.276,0l-0,-7.244l6.276,-0l0,7.244Zm23.671,0l-6.277,0l0,-7.244l6.277,-0l0,7.244Zm23.686,0l-6.276,0l-0,-7.244l6.276,-0l0,7.244Zm23.671,0l-6.277,0l0,-7.244l6.277,-0l0,7.244Zm23.686,0l-6.276,0l-0,-7.244l6.276,-0l0,7.244Zm23.671,0l-6.277,0l0,-7.244l6.277,-0l0,7.244Zm23.671,0l-6.277,0l0,-7.244l6.277,-0l-0,7.244Zm23.686,0l-6.277,0l0,-7.244l6.277,-0l0,7.244Zm23.671,0l-6.277,0l0,-7.244l6.277,-0l0,7.244Zm23.686,0l-6.276,0l-0,-7.244l6.276,-0l0,7.244Zm23.671,0l-6.277,0l0,-7.244l6.277,-0l0,7.244Zm23.686,0l-6.276,0l-0,-7.244l6.276,-0l0,7.244Zm23.671,0l-6.277,0l0,-7.244l6.277,-0l0,7.244Zm16.41,7.261l-7.244,-0l-0,-6.277l7.244,0l0,6.277Zm0,23.686l-7.244,0l-0,-6.276l7.244,-0l0,6.276Zm-1.748,25.435l-5.481,0l0,-8.041l7.229,0l0,4.419l-1.748,-0l-0,3.622Zm23.67,0l-6.276,0l-0,-7.244l6.276,-0l0,7.244Zm23.687,0l-6.277,0l-0,-7.244l6.277,-0l-0,7.244Zm13.194,10.477l-7.245,0l-0,-6.276l7.245,-0l-0,6.276Zm-0,23.687l-7.245,-0l-0,-6.277l7.245,-0l-0,6.277Zm-0,23.655l-7.245,-0l-0,-6.277l7.245,0l-0,6.277Zm-0,23.686l-7.245,0l-0,-6.277l7.245,0l-0,6.277Zm-0,23.687l-7.245,-0l-0,-6.277l7.245,-0l-0,6.277Zm-0,23.67l-7.245,0l-0,-6.277l7.245,0l-0,6.277Zm-0,23.687l-7.245,-0l-0,-6.277l7.245,-0l-0,6.277Zm-0,23.655l-7.245,-0l-0,-6.277l7.245,-0l-0,6.277Zm-0,23.686l-7.245,0l-0,-6.277l7.245,0l-0,6.277Zm-0,23.686l-7.245,0l-0,-6.276l7.245,-0l-0,6.276Zm-0,23.671l-7.245,0l-0,-6.277l7.245,0l-0,6.277Zm-0,23.687l-7.245,-0l-0,-6.277l7.245,-0l-0,6.277Zm-0,23.655l-7.245,-0l-0,-6.277l7.245,-0l-0,6.277Zm7.369,16.316l-6.276,0l-0,-7.26l6.276,-0l0,7.26Zm23.687,0l-6.277,0l-0,-7.26l6.277,-0l-0,7.26Zm23.218,0l-5.824,0l-0,-7.26l5.824,-0l-0,7.26Z" style="fill:#231f20;fill-rule:nonzero;"/><path d="M973.723,801.673c-0,10.773 -8.744,19.517 -19.674,19.517c-9.68,0 -17.644,-7.026 -19.205,-16.238c4.372,-4.528 7.026,-10.618 7.026,-17.316c0,-0.328 0,-0.625 -0.156,-0.953c3.279,-2.81 7.651,-4.528 12.335,-4.528c10.93,0 19.674,8.76 19.674,19.518" style="fill:#668e19;fill-rule:nonzero;"/><path d="M974.188,841.485l0,5.777l-31.696,0l-0,-7.635c-0,-4.231 -0.937,-8.275 -2.967,-11.882c3.591,-3.904 8.9,-6.23 14.521,-6.23c11.086,-0 20.142,8.884 20.142,19.97" style="fill:#668e19;fill-rule:nonzero;"/><path d="M916.292,764.377c-12.773,0 -23.156,10.399 -23.156,23.171c0,12.788 10.383,23.187 23.156,23.187c12.772,0 23.171,-10.399 23.171,-23.187c-0,-12.772 -10.399,-23.171 -23.171,-23.171m-0,51.167c-15.443,0 -27.996,-12.538 -27.996,-27.996c-0,-15.442 12.553,-27.995 27.996,-27.995c15.442,-0 27.995,12.553 27.995,27.995c0,15.458 -12.553,27.996 -27.995,27.996" style="fill:#231f20;fill-rule:nonzero;"/><path d="M906.892,849.675l-19.127,-0l-0,-10.056c-0,-4.356 1.015,-8.665 2.92,-12.475l4.309,2.155c-1.561,3.138 -2.389,6.714 -2.389,10.32l0,5.231l14.287,0l-0,4.825Z" style="fill:#231f20;fill-rule:nonzero;"/><path d="M944.912,849.675l-28.652,-0l0,-4.825l23.812,0l-0,-5.231c-0,-3.95 -0.89,-7.557 -2.639,-10.68c-4.013,-8.166 -12.101,-13.147 -21.173,-13.147c-5.949,0 -11.507,2.218 -15.645,6.215l-0.702,0.671l-0.984,0l-0.078,-2.498l-1.593,-1.655c5.043,-4.872 11.789,-7.557 19.002,-7.557c10.93,-0 20.673,6.011 25.435,15.707c2.108,3.748 3.217,8.151 3.217,12.944l-0,10.056Z" style="fill:#231f20;fill-rule:nonzero;"/><path d="M887.023,829.637c-4.184,0 -8.181,1.499 -11.382,4.263c-3.513,3.06 -5.637,7.276 -5.965,11.929c-0.312,4.637 1.171,9.119 4.232,12.632c3.044,3.513 7.276,5.636 11.913,5.964c4.7,0.328 9.134,-1.186 12.647,-4.231c7.245,-6.293 8.026,-17.3 1.733,-24.545c-3.044,-3.529 -7.291,-5.653 -11.913,-5.965c-0.422,-0.031 -0.843,-0.047 -1.265,-0.047m0.063,39.66c-0.531,-0 -1.062,-0.016 -1.609,-0.063c-5.933,-0.406 -11.335,-3.122 -15.223,-7.604c-3.888,-4.481 -5.809,-10.211 -5.387,-16.145c0.406,-5.917 3.123,-11.335 7.604,-15.239c4.497,-3.888 10.227,-5.886 16.145,-5.387c5.933,0.422 11.336,3.139 15.239,7.62c8.026,9.244 7.042,23.327 -2.217,31.368c-4.091,3.545 -9.197,5.45 -14.552,5.45m-0.063,-49.075c-6.464,0 -12.631,2.295 -17.55,6.574c-5.418,4.699 -8.681,11.21 -9.181,18.362c-0.499,7.151 1.796,14.068 6.496,19.47c4.699,5.418 11.226,8.682 18.377,9.181c7.073,0.547 14.068,-1.795 19.471,-6.511c5.418,-4.7 8.681,-11.211 9.181,-18.362c0.499,-7.151 -1.811,-14.052 -6.511,-19.47c-4.684,-5.403 -11.211,-8.666 -18.362,-9.181c-0.64,-0.047 -1.281,-0.063 -1.921,-0.063m0.078,58.49c-0.749,-0 -1.514,-0.016 -2.279,-0.078c-8.432,-0.593 -16.13,-4.434 -21.672,-10.836c-5.543,-6.386 -8.276,-14.537 -7.683,-22.968c0.609,-8.447 4.45,-16.145 10.837,-21.688c6.386,-5.543 14.614,-8.166 22.983,-7.667c8.432,0.594 16.129,4.435 21.672,10.821c5.543,6.386 8.276,14.552 7.667,22.984c-0.593,8.447 -4.434,16.129 -10.821,21.672c-5.808,5.059 -13.084,7.76 -20.704,7.76" style="fill:#231f20;fill-rule:nonzero;"/><path d="M861.9,865.59l-11.556,10.162l3.187,3.625l11.557,-10.162l-3.188,-3.625Z" style="fill:#231f20;"/><path d="M848.087,878.279c-0.656,0 -1.327,0.235 -1.874,0.703l-19.33,16.769c-0.578,0.484 -0.921,1.187 -0.968,1.952c-0.062,0.75 0.187,1.484 0.687,2.061c0.5,0.578 1.187,0.937 1.952,0.968c0.702,0.172 1.483,-0.171 2.061,-0.671l19.33,-16.801c0.578,-0.484 0.921,-1.186 0.984,-1.951c0.046,-0.75 -0.203,-1.468 -0.688,-2.061c-0.562,-0.641 -1.358,-0.969 -2.154,-0.969m-19.315,27.309c-0.203,0 -0.374,-0.015 -0.562,-0.031c-2.045,-0.141 -3.919,-1.077 -5.262,-2.623c-2.779,-3.201 -2.435,-8.073 0.765,-10.836l19.33,-16.77c3.186,-2.748 8.057,-2.451 10.837,0.75c1.358,1.561 2.014,3.544 1.858,5.59c-0.141,2.045 -1.078,3.903 -2.624,5.262l-19.33,16.785c-1.405,1.217 -3.169,1.873 -5.012,1.873" style="fill:#231f20;fill-rule:nonzero;"/><rect x="852.595" y="782.102" width="4.84" height="29.307" style="fill:#231f20;"/><rect x="840.384" y="794.344" width="29.292" height="4.825" style="fill:#231f20;"/><rect x="944.342" y="865.465" width="4.84" height="21.657" style="fill:#231f20;"/><rect x="935.942" y="873.881" width="21.657" height="4.825" style="fill:#231f20;"/><path d="M944.912,847.265l-4.84,0l-0,-7.635c-0,-3.966 -0.89,-7.572 -2.639,-10.695l4.2,-2.374c2.17,3.857 3.279,8.26 3.279,13.069l-0,7.635Z" style="fill:#231f20;fill-rule:nonzero;"/><path d="M831.346,812.454c-0,10.243 -8.307,18.55 -18.55,18.55c-10.243,-0 -18.534,-8.307 -18.534,-18.55c0,-10.227 8.291,-18.534 18.534,-18.534c10.243,0 18.55,8.307 18.55,18.534" style="fill:#ffc200;fill-rule:nonzero;"/><path d="M1192.78,451.221c-0.843,0 -1.546,-0.234 -2.108,-0.422l1.452,-4.606l0.047,0.016c0.203,0.078 0.516,0.172 0.625,0.172c2.186,-0 4.746,-4.263 4.746,-9.759c0,-5.496 -2.56,-9.759 -4.762,-9.759c-0.109,0 -0.484,0.125 -0.624,0.188l-1.562,-4.575c0.64,-0.219 1.359,-0.453 2.186,-0.453c5.387,-0 9.603,6.417 9.603,14.599c-0,8.182 -4.216,14.599 -9.603,14.599" style="fill:#231f20;fill-rule:nonzero;"/><path d="M1128.44,450.863c23.436,0.375 36.302,10.087 51.791,23.687l8.806,7.729l0,-86.049l-8.806,7.745c-15.489,13.6 -28.355,23.311 -51.791,23.686l-6.589,11.43l0.093,0.171l-0.093,0.172l0.187,0l6.402,11.429Zm65.438,42.08l-16.832,-14.771c-17.706,-15.551 -29.151,-22.484 -50.027,-22.484l-1.421,0l-6.386,-11.429l-5.606,-0l2.795,-4.997l-2.795,-5.012l5.606,0l6.386,-11.414l1.421,0c20.891,0 32.321,-6.932 50.027,-22.499l16.832,-14.771l-0,107.377Z" style="fill:#231f20;fill-rule:nonzero;"/><path d="M1091.4,505.306l30.245,0l-11.742,-46.155l-18.503,0l0,46.155Zm36.459,4.825l-41.299,-0l0,-55.82l27.09,0l14.209,55.82Z" style="fill:#231f20;fill-rule:nonzero;"/><rect x="1075.36" y="418.032" width="54.805" height="42.439" style="fill:#668e19;"/><path d="M156.302,201.741c-0,1.921 -0.594,3.56 -1.749,4.919c-1.171,1.374 -2.857,2.373 -5.075,2.998l0,0.125c5.153,0.64 7.729,3.076 7.729,7.291c0,2.873 -1.139,5.137 -3.403,6.777c-2.28,1.639 -5.434,2.467 -9.462,2.467c-1.671,-0 -3.201,-0.125 -4.622,-0.359c-1.405,-0.235 -2.936,-0.672 -4.575,-1.312l-0,-6.917c1.343,0.687 2.717,1.202 4.122,1.53c1.405,0.328 2.686,0.5 3.872,0.5c1.827,-0 3.154,-0.265 3.997,-0.781c0.828,-0.499 1.25,-1.311 1.25,-2.404c-0,-0.843 -0.219,-1.499 -0.656,-1.952c-0.437,-0.468 -1.14,-0.812 -2.108,-1.031c-0.968,-0.234 -2.233,-0.359 -3.794,-0.359l-1.89,0l0,-6.261l1.937,0c4.231,0 6.339,-1.077 6.339,-3.248c-0,-0.811 -0.313,-1.42 -0.937,-1.811c-0.625,-0.39 -1.452,-0.593 -2.514,-0.593c-1.967,-0 -4.013,0.671 -6.121,1.983l-3.466,-5.559c1.64,-1.14 3.31,-1.936 5.012,-2.42c1.718,-0.468 3.669,-0.718 5.887,-0.718c3.185,-0 5.683,0.64 7.51,1.905c1.811,1.265 2.717,3.013 2.717,5.23" style="fill:#182460;fill-rule:nonzero;"/><path d="M173.418,205.69c1.764,0 3.372,0.406 4.793,1.234c1.437,0.812 2.545,1.983 3.342,3.482c0.796,1.514 1.186,3.247 1.186,5.215c0,3.45 -1.03,6.089 -3.107,7.932c-2.077,1.842 -5.215,2.763 -9.431,2.763c-3.591,0 -6.526,-0.562 -8.806,-1.67l0,-6.839c1.234,0.562 2.608,1.03 4.153,1.405c1.531,0.359 2.858,0.546 3.966,0.546c1.546,0 2.733,-0.327 3.576,-0.983c0.827,-0.656 1.233,-1.624 1.233,-2.904c0,-1.172 -0.421,-2.093 -1.264,-2.764c-0.843,-0.656 -2.124,-0.984 -3.841,-0.984c-1.312,0 -2.717,0.25 -4.247,0.734l-3.045,-1.515l1.155,-16.285l17.597,0l0,6.948l-10.508,0l-0.375,4.06c1.093,-0.203 1.874,-0.328 2.327,-0.344c0.468,-0.031 0.905,-0.031 1.296,-0.031" style="fill:#182460;fill-rule:nonzero;"/><path d="M215.732,216.615c-0,1.624 0.14,2.78 0.406,3.498c0.265,0.718 0.671,1.077 1.202,1.077c0.609,0 1.015,-0.406 1.249,-1.233c0.234,-0.828 0.359,-1.936 0.359,-3.342c0,-1.405 -0.125,-2.529 -0.359,-3.341c-0.234,-0.828 -0.64,-1.234 -1.249,-1.234c-0.547,0 -0.953,0.36 -1.218,1.093c-0.25,0.734 -0.39,1.89 -0.39,3.482m9.555,-0.078c0,3.076 -0.702,5.465 -2.092,7.151c-1.405,1.702 -3.388,2.546 -5.933,2.546c-2.436,-0 -4.341,-0.875 -5.762,-2.624c-1.405,-1.764 -2.108,-4.106 -2.108,-7.073c0,-3.107 0.687,-5.48 2.061,-7.151c1.374,-1.655 3.311,-2.498 5.809,-2.498c2.451,-0 4.403,0.874 5.855,2.592c1.452,1.733 2.17,4.091 2.17,7.057m-8.072,-21.485l-17.113,30.838l-6.261,-0l17.097,-30.838l6.277,0Zm-24.936,9.291c0,1.608 0.141,2.779 0.406,3.497c0.266,0.719 0.656,1.078 1.203,1.078c0.531,-0 0.936,-0.359 1.186,-1.062c0.266,-0.703 0.391,-1.874 0.391,-3.513c-0,-1.624 -0.125,-2.795 -0.391,-3.513c-0.25,-0.719 -0.655,-1.078 -1.186,-1.078c-0.562,0 -0.953,0.375 -1.218,1.109c-0.266,0.734 -0.391,1.889 -0.391,3.482m9.556,-0.094c0,3.092 -0.702,5.496 -2.092,7.182c-1.39,1.702 -3.373,2.546 -5.949,2.546c-2.42,-0 -4.325,-0.875 -5.746,-2.624c-1.405,-1.748 -2.123,-4.122 -2.123,-7.104c-0,-3.091 0.702,-5.465 2.076,-7.135c1.374,-1.671 3.31,-2.499 5.793,-2.499c2.467,0 4.419,0.859 5.871,2.592c1.436,1.733 2.17,4.075 2.17,7.042" style="fill:#182460;fill-rule:nonzero;"/><path d="M153.535,282.342l-8.463,0l0,-16.316c0,-1.983 0.047,-3.81 0.125,-5.45c-0.515,0.625 -1.155,1.296 -1.936,1.983l-3.497,2.889l-4.326,-5.309l10.587,-8.634l7.51,-0l-0,30.837Z" style="fill:#182460;fill-rule:nonzero;"/><path d="M173.418,262.138c1.764,-0 3.372,0.406 4.793,1.233c1.437,0.812 2.545,1.983 3.342,3.482c0.796,1.515 1.186,3.248 1.186,5.215c0,3.451 -1.03,6.09 -3.107,7.932c-2.077,1.843 -5.215,2.764 -9.431,2.764c-3.591,-0 -6.526,-0.562 -8.806,-1.671l0,-6.839c1.234,0.562 2.608,1.031 4.153,1.405c1.531,0.36 2.858,0.547 3.966,0.547c1.546,-0 2.733,-0.328 3.576,-0.984c0.827,-0.656 1.233,-1.624 1.233,-2.904c0,-1.171 -0.421,-2.092 -1.264,-2.764c-0.843,-0.655 -2.124,-0.983 -3.841,-0.983c-1.312,-0 -2.717,0.25 -4.247,0.734l-3.045,-1.515l1.155,-16.285l17.597,-0l0,6.948l-10.508,-0l-0.375,4.059c1.093,-0.202 1.874,-0.327 2.327,-0.343c0.468,-0.031 0.905,-0.031 1.296,-0.031" style="fill:#182460;fill-rule:nonzero;"/><path d="M215.732,273.064c-0,1.624 0.14,2.78 0.406,3.498c0.265,0.718 0.671,1.077 1.202,1.077c0.609,0 1.015,-0.406 1.249,-1.233c0.234,-0.828 0.359,-1.936 0.359,-3.342c0,-1.405 -0.125,-2.529 -0.359,-3.341c-0.234,-0.828 -0.64,-1.233 -1.249,-1.233c-0.547,-0 -0.953,0.359 -1.218,1.092c-0.25,0.734 -0.39,1.89 -0.39,3.482m9.555,-0.078c0,3.076 -0.702,5.465 -2.092,7.152c-1.405,1.701 -3.388,2.545 -5.933,2.545c-2.436,-0 -4.341,-0.875 -5.762,-2.624c-1.405,-1.764 -2.108,-4.106 -2.108,-7.073c0,-3.107 0.687,-5.48 2.061,-7.151c1.374,-1.655 3.311,-2.498 5.809,-2.498c2.451,-0 4.403,0.874 5.855,2.592c1.452,1.733 2.17,4.091 2.17,7.057m-8.072,-21.484l-17.113,30.837l-6.261,0l17.097,-30.837l6.277,-0Zm-24.936,9.29c0,1.608 0.141,2.779 0.406,3.497c0.266,0.719 0.656,1.078 1.203,1.078c0.531,-0 0.936,-0.359 1.186,-1.062c0.266,-0.703 0.391,-1.874 0.391,-3.513c-0,-1.624 -0.125,-2.795 -0.391,-3.513c-0.25,-0.719 -0.655,-1.078 -1.186,-1.078c-0.562,0 -0.953,0.375 -1.218,1.109c-0.266,0.734 -0.391,1.889 -0.391,3.482m9.556,-0.094c0,3.092 -0.702,5.496 -2.092,7.183c-1.39,1.701 -3.373,2.545 -5.949,2.545c-2.42,-0 -4.325,-0.875 -5.746,-2.624c-1.405,-1.748 -2.123,-4.122 -2.123,-7.104c-0,-3.091 0.702,-5.465 2.076,-7.135c1.374,-1.671 3.31,-2.499 5.793,-2.499c2.467,0 4.419,0.859 5.871,2.592c1.436,1.733 2.17,4.076 2.17,7.042" style="fill:#182460;fill-rule:nonzero;"/><path d="M157.331,340.665l-22.375,-0l-0,-5.481l7.526,-7.619c2.155,-2.249 3.56,-3.794 4.216,-4.606c0.655,-0.828 1.124,-1.53 1.389,-2.124c0.25,-0.593 0.391,-1.202 0.391,-1.858c-0,-0.796 -0.266,-1.421 -0.781,-1.889c-0.531,-0.469 -1.249,-0.703 -2.202,-0.703c-0.968,0 -1.951,0.281 -2.935,0.843c-0.999,0.547 -2.124,1.359 -3.373,2.452l-4.575,-5.356c1.593,-1.421 2.92,-2.436 4.013,-3.044c1.078,-0.609 2.264,-1.093 3.529,-1.406c1.265,-0.328 2.701,-0.484 4.294,-0.484c1.998,0 3.778,0.344 5.355,1.046c1.562,0.703 2.78,1.702 3.638,3.014c0.875,1.296 1.296,2.764 1.296,4.372c0,1.202 -0.14,2.326 -0.452,3.357c-0.297,1.015 -0.765,2.03 -1.406,3.029c-0.624,0.984 -1.467,2.03 -2.513,3.123c-1.047,1.093 -3.279,3.185 -6.699,6.245l0,0.219l11.664,-0l-0,6.87Z" style="fill:#182460;fill-rule:nonzero;"/><path d="M173.418,320.462c1.764,0 3.372,0.406 4.793,1.234c1.437,0.811 2.545,1.983 3.342,3.481c0.796,1.515 1.186,3.248 1.186,5.216c0,3.45 -1.03,6.089 -3.107,7.931c-2.077,1.843 -5.215,2.764 -9.431,2.764c-3.591,0 -6.526,-0.562 -8.806,-1.671l0,-6.839c1.234,0.563 2.608,1.031 4.153,1.406c1.531,0.359 2.858,0.546 3.966,0.546c1.546,0 2.733,-0.328 3.576,-0.983c0.827,-0.656 1.233,-1.624 1.233,-2.905c0,-1.171 -0.421,-2.092 -1.264,-2.763c-0.843,-0.656 -2.124,-0.984 -3.841,-0.984c-1.312,0 -2.717,0.25 -4.247,0.734l-3.045,-1.515l1.155,-16.285l17.597,-0l0,6.948l-10.508,0l-0.375,4.06c1.093,-0.203 1.874,-0.328 2.327,-0.344c0.468,-0.031 0.905,-0.031 1.296,-0.031" style="fill:#182460;fill-rule:nonzero;"/><path d="M215.732,331.387c-0,1.624 0.14,2.779 0.406,3.498c0.265,0.718 0.671,1.077 1.202,1.077c0.609,0 1.015,-0.406 1.249,-1.233c0.234,-0.828 0.359,-1.937 0.359,-3.342c0,-1.405 -0.125,-2.529 -0.359,-3.341c-0.234,-0.828 -0.64,-1.234 -1.249,-1.234c-0.547,0 -0.953,0.359 -1.218,1.093c-0.25,0.734 -0.39,1.89 -0.39,3.482m9.555,-0.078c0,3.076 -0.702,5.465 -2.092,7.151c-1.405,1.702 -3.388,2.545 -5.933,2.545c-2.436,0 -4.341,-0.874 -5.762,-2.623c-1.405,-1.764 -2.108,-4.106 -2.108,-7.073c0,-3.107 0.687,-5.48 2.061,-7.151c1.374,-1.655 3.311,-2.498 5.809,-2.498c2.451,-0 4.403,0.874 5.855,2.592c1.452,1.733 2.17,4.09 2.17,7.057m-8.072,-21.485l-17.113,30.838l-6.261,-0l17.097,-30.838l6.277,0Zm-24.936,9.291c0,1.608 0.141,2.779 0.406,3.497c0.266,0.718 0.656,1.077 1.203,1.077c0.531,0 0.936,-0.359 1.186,-1.061c0.266,-0.703 0.391,-1.874 0.391,-3.513c-0,-1.624 -0.125,-2.795 -0.391,-3.514c-0.25,-0.718 -0.655,-1.077 -1.186,-1.077c-0.562,0 -0.953,0.375 -1.218,1.109c-0.266,0.734 -0.391,1.889 -0.391,3.482m9.556,-0.094c0,3.091 -0.702,5.496 -2.092,7.182c-1.39,1.702 -3.373,2.545 -5.949,2.545c-2.42,0 -4.325,-0.874 -5.746,-2.623c-1.405,-1.749 -2.123,-4.122 -2.123,-7.104c-0,-3.092 0.702,-5.465 2.076,-7.136c1.374,-1.67 3.31,-2.498 5.793,-2.498c2.467,0 4.419,0.859 5.871,2.592c1.436,1.733 2.17,4.075 2.17,7.042" style="fill:#182460;fill-rule:nonzero;"/><path d="M153.535,398.043l-8.463,0l0,-16.317c0,-1.982 0.047,-3.809 0.125,-5.449c-0.515,0.625 -1.155,1.296 -1.936,1.983l-3.497,2.889l-4.326,-5.309l10.587,-8.634l7.51,-0l-0,30.837Z" style="fill:#182460;fill-rule:nonzero;"/><path d="M169.216,382.666c0,3.498 0.219,5.887 0.656,7.198c0.437,1.296 1.171,1.952 2.201,1.952c1.031,0 1.765,-0.671 2.202,-2.014c0.422,-1.358 0.64,-3.732 0.64,-7.136c0,-3.419 -0.218,-5.808 -0.656,-7.182c-0.437,-1.374 -1.155,-2.061 -2.186,-2.061c-1.03,-0 -1.764,0.671 -2.201,1.983c-0.437,1.327 -0.656,3.747 -0.656,7.26m13.99,0c0,5.465 -0.921,9.447 -2.748,11.992c-1.827,2.545 -4.622,3.81 -8.385,3.81c-3.684,-0 -6.464,-1.327 -8.337,-3.982c-1.874,-2.654 -2.811,-6.589 -2.811,-11.82c0,-5.48 0.921,-9.508 2.748,-12.054c1.827,-2.576 4.622,-3.856 8.4,-3.856c3.654,-0 6.433,1.343 8.307,3.997c1.889,2.67 2.826,6.652 2.826,11.913" style="fill:#182460;fill-rule:nonzero;"/><path d="M215.732,388.765c-0,1.624 0.14,2.78 0.406,3.498c0.265,0.718 0.671,1.077 1.202,1.077c0.609,0 1.015,-0.406 1.249,-1.233c0.234,-0.828 0.359,-1.936 0.359,-3.342c0,-1.405 -0.125,-2.529 -0.359,-3.341c-0.234,-0.828 -0.64,-1.234 -1.249,-1.234c-0.547,0 -0.953,0.359 -1.218,1.093c-0.25,0.734 -0.39,1.89 -0.39,3.482m9.555,-0.078c0,3.076 -0.702,5.465 -2.092,7.151c-1.405,1.702 -3.388,2.545 -5.933,2.545c-2.436,0 -4.341,-0.874 -5.762,-2.623c-1.405,-1.764 -2.108,-4.106 -2.108,-7.073c0,-3.107 0.687,-5.48 2.061,-7.151c1.374,-1.655 3.311,-2.498 5.809,-2.498c2.451,-0 4.403,0.874 5.855,2.592c1.452,1.733 2.17,4.091 2.17,7.057m-8.072,-21.485l-17.113,30.838l-6.261,-0l17.097,-30.838l6.277,0Zm-24.936,9.291c0,1.608 0.141,2.779 0.406,3.497c0.266,0.718 0.656,1.078 1.203,1.078c0.531,-0 0.936,-0.36 1.186,-1.062c0.266,-0.703 0.391,-1.874 0.391,-3.513c-0,-1.624 -0.125,-2.795 -0.391,-3.513c-0.25,-0.719 -0.655,-1.078 -1.186,-1.078c-0.562,0 -0.953,0.375 -1.218,1.109c-0.266,0.734 -0.391,1.889 -0.391,3.482m9.556,-0.094c0,3.092 -0.702,5.496 -2.092,7.182c-1.39,1.702 -3.373,2.545 -5.949,2.545c-2.42,0 -4.325,-0.874 -5.746,-2.623c-1.405,-1.748 -2.123,-4.122 -2.123,-7.104c-0,-3.092 0.702,-5.465 2.076,-7.136c1.374,-1.67 3.31,-2.498 5.793,-2.498c2.467,0 4.419,0.859 5.871,2.592c1.436,1.733 2.17,4.075 2.17,7.042" style="fill:#182460;fill-rule:nonzero;"/><path d="M153.535,455.437l-8.463,-0l0,-16.317c0,-1.983 0.047,-3.81 0.125,-5.449c-0.515,0.624 -1.155,1.296 -1.936,1.983l-3.497,2.888l-4.326,-5.308l10.587,-8.635l7.51,0l-0,30.838Z" style="fill:#182460;fill-rule:nonzero;"/><path d="M173.418,435.234c1.764,-0 3.372,0.406 4.793,1.233c1.437,0.812 2.545,1.983 3.342,3.482c0.796,1.515 1.186,3.248 1.186,5.215c0,3.451 -1.03,6.09 -3.107,7.932c-2.077,1.843 -5.215,2.764 -9.431,2.764c-3.591,-0 -6.526,-0.562 -8.806,-1.671l0,-6.839c1.234,0.562 2.608,1.031 4.153,1.406c1.531,0.359 2.858,0.546 3.966,0.546c1.546,0 2.733,-0.328 3.576,-0.984c0.827,-0.655 1.233,-1.623 1.233,-2.904c0,-1.171 -0.421,-2.092 -1.264,-2.763c-0.843,-0.656 -2.124,-0.984 -3.841,-0.984c-1.312,-0 -2.717,0.25 -4.247,0.734l-3.045,-1.515l1.155,-16.285l17.597,-0l0,6.948l-10.508,0l-0.375,4.06c1.093,-0.203 1.874,-0.328 2.327,-0.344c0.468,-0.031 0.905,-0.031 1.296,-0.031" style="fill:#182460;fill-rule:nonzero;"/><path d="M215.732,446.159c-0,1.624 0.14,2.779 0.406,3.497c0.265,0.719 0.671,1.078 1.202,1.078c0.609,-0 1.015,-0.406 1.249,-1.234c0.234,-0.827 0.359,-1.936 0.359,-3.341c0,-1.405 -0.125,-2.529 -0.359,-3.341c-0.234,-0.828 -0.64,-1.234 -1.249,-1.234c-0.547,0 -0.953,0.359 -1.218,1.093c-0.25,0.734 -0.39,1.889 -0.39,3.482m9.555,-0.078c0,3.076 -0.702,5.465 -2.092,7.151c-1.405,1.702 -3.388,2.545 -5.933,2.545c-2.436,0 -4.341,-0.874 -5.762,-2.623c-1.405,-1.764 -2.108,-4.106 -2.108,-7.073c0,-3.107 0.687,-5.481 2.061,-7.151c1.374,-1.655 3.311,-2.499 5.809,-2.499c2.451,0 4.403,0.875 5.855,2.592c1.452,1.734 2.17,4.091 2.17,7.058m-8.072,-21.485l-17.113,30.838l-6.261,-0l17.097,-30.838l6.277,0Zm-24.936,9.29c0,1.609 0.141,2.78 0.406,3.498c0.266,0.718 0.656,1.077 1.203,1.077c0.531,0 0.936,-0.359 1.186,-1.061c0.266,-0.703 0.391,-1.874 0.391,-3.514c-0,-1.623 -0.125,-2.794 -0.391,-3.513c-0.25,-0.718 -0.655,-1.077 -1.186,-1.077c-0.562,-0 -0.953,0.375 -1.218,1.109c-0.266,0.733 -0.391,1.889 -0.391,3.481m9.556,-0.093c0,3.091 -0.702,5.496 -2.092,7.182c-1.39,1.702 -3.373,2.545 -5.949,2.545c-2.42,0 -4.325,-0.874 -5.746,-2.623c-1.405,-1.749 -2.123,-4.122 -2.123,-7.104c-0,-3.092 0.702,-5.465 2.076,-7.136c1.374,-1.671 3.31,-2.498 5.793,-2.498c2.467,-0 4.419,0.859 5.871,2.592c1.436,1.733 2.17,4.075 2.17,7.042" style="fill:#182460;fill-rule:nonzero;"/><rect x="294.068" y="80.724" width="242.375" height="398.249" style="fill:#668e19;"/><rect x="327.701" y="210.413" width="174.517" height="55.617" style="fill:#8dc63f;"/><rect x="327.701" y="117.089" width="174.517" height="68.28" style="fill:#8dc63f;"/><rect x="327.701" y="286.937" width="174.517" height="27.808" style="fill:#8dc63f;"/><rect x="327.701" y="340.634" width="174.517" height="93.746" style="fill:#8dc63f;"/></g></svg>