<?xml version="1.0" encoding="UTF-8"?>
<svg id="Capa_1" data-name="Capa 1" xmlns="http://www.w3.org/2000/svg" viewBox="0 0 543.96 544.02">
  <defs>
    <style>
      .cls-1 {
        fill: #e8d641;
      }

      .cls-2 {
        fill: #273e5b;
      }
    </style>
  </defs>
  <path class="cls-2" d="M543.96,272.1c0,150.15-121.76,271.92-271.98,271.92S0,422.25,0,272.1,121.76,0,271.98,0s271.98,121.8,271.98,272.1"/>
  <path id="Trazado_112" data-name="Trazado 112" class="cls-1" d="M426.1,250c-2.15-9.16-5.1-18.12-8.8-26.77,2.84-4.97,4.34-10.6,4.34-16.33.02-18.35-14.84-33.23-33.19-33.25-18.35-.02-33.23,14.84-33.25,33.19-.02,17.35,13.32,31.79,30.62,33.15-16.41,14.63-38.29,21.54-60.12,18.99-2.46-5.16-5.19-10.18-8.18-15.05-6.55-10.65-14.32-20.5-23.16-29.35,11.66-14.18,9.62-35.12-4.55-46.78-14.18-11.66-35.12-9.62-46.78,4.55-9.91,12.04-10.11,29.35-.49,41.62-13.04,13.17-23.7,28.5-31.52,45.3-19.75,1.68-39.4-4.31-54.85-16.73.31-.84.63-1.63.94-2.41,18.34-.87,32.49-16.44,31.62-34.78-.87-18.34-16.44-32.49-34.78-31.62-18.34.87-32.49,16.44-31.62,34.78.25,5.21,1.72,10.29,4.3,14.83-3.7,8.65-6.63,17.61-8.78,26.77-8.41,37.26-4.06,76.27,12.35,110.76,2.95,6.48,6.23,12.8,9.81,18.95l2.47,4h259.03l2.41-4.09c3.59-6.15,6.86-12.47,9.81-18.95,16.43-34.49,20.79-73.5,12.39-110.76M196.3,349.06h-33.22c-10.82-21.64-15.88-45.7-14.71-69.86,15.55,8.98,33.04,14.07,50.98,14.84-3.83,18.07-4.86,36.63-3.06,55.02M306.26,349.06h-75.02c-6.35-40.96,7.37-82.48,36.87-111.6,29.7,29.04,43.86,70.46,38.15,111.6M341.18,349.06c1.67-18.39.52-36.92-3.4-54.96,20.46-.53,40.38-6.66,57.6-17.71,1.78,25.09-3.22,50.19-14.5,72.67h-39.7Z"/>
</svg>