<svg width="1440" height="800" xmlns="http://www.w3.org/2000/svg">
  <path d="M0,192 C320,100 480,100 640,192 C800,290 960,290 1120,192 C1280,100 1440,100 1600,192 L1600,800 L0,800 Z" fill="#A4D070" opacity="0.5"/>
  <path d="M0,292 C320,200 480,200 640,292 C800,390 960,390 1120,292 C1280,200 1440,200 1600,292 L1600,800 L0,800 Z" fill="#A4D070" opacity="0.3"/>
  <path d="M0,392 C320,300 480,300 640,392 C800,490 960,490 1120,392 C1280,300 1440,300 1600,392 L1600,800 L0,800 Z" fill="#A4D070" opacity="0.2"/>
  <path d="M0,492 C320,400 480,400 640,492 C800,590 960,590 1120,492 C1280,400 1440,400 1600,492 L1600,800 L0,800 Z" fill="#A4D070" opacity="0.1"/>
</svg>